<?xml version="1.0" encoding="UTF-8"?>
<svg id="Layer_2" data-name="Layer 2" xmlns="http://www.w3.org/2000/svg" xmlns:xlink="http://www.w3.org/1999/xlink" viewBox="0 0 334.85 151.21">
  <defs>
    <style>
      .cls-1 {
        fill: url(#linear-gradient-2);
      }

      .cls-2 {
        fill: url(#linear-gradient-10);
      }

      .cls-3 {
        fill: url(#linear-gradient-4);
      }

      .cls-4 {
        fill: url(#linear-gradient-3);
      }

      .cls-5 {
        fill: url(#linear-gradient-5);
      }

      .cls-6 {
        fill: #231f20;
      }

      .cls-7 {
        fill: url(#linear-gradient-8);
      }

      .cls-8 {
        fill: url(#linear-gradient-7);
      }

      .cls-9 {
        fill: url(#linear-gradient-9);
      }

      .cls-10 {
        fill: url(#linear-gradient-11);
      }

      .cls-11 {
        fill: url(#linear-gradient-6);
      }

      .cls-12 {
        fill: url(#linear-gradient);
      }
    </style>
    <linearGradient id="linear-gradient" x1="6.7" y1="123.81" x2="334.85" y2="123.81" gradientUnits="userSpaceOnUse">
      <stop offset="0" stop-color="#41af4b"/>
      <stop offset="1" stop-color="#439ecf"/>
    </linearGradient>
    <linearGradient id="linear-gradient-2" x1="6.7" y1="144.03" x2="334.85" y2="144.03" xlink:href="#linear-gradient"/>
    <linearGradient id="linear-gradient-3" x1="6.7" y1="144.03" x2="334.85" y2="144.03" xlink:href="#linear-gradient"/>
    <linearGradient id="linear-gradient-4" x1="6.7" y1="69.23" x2="334.85" y2="69.23" xlink:href="#linear-gradient"/>
    <linearGradient id="linear-gradient-5" x1="6.7" y1="20.06" x2="334.85" y2="20.06" xlink:href="#linear-gradient"/>
    <linearGradient id="linear-gradient-6" x1="6.7" y1="85.04" x2="334.85" y2="85.04" xlink:href="#linear-gradient"/>
    <linearGradient id="linear-gradient-7" x1="6.7" y1="68.43" x2="299.37" y2="68.43" xlink:href="#linear-gradient"/>
    <linearGradient id="linear-gradient-8" x1="6.7" y1="20.06" x2="334.85" y2="20.06" xlink:href="#linear-gradient"/>
    <linearGradient id="linear-gradient-9" x1="6.7" y1="85.04" x2="334.85" y2="85.04" xlink:href="#linear-gradient"/>
    <linearGradient id="linear-gradient-10" x1="6.7" y1="144.03" x2="334.85" y2="144.03" xlink:href="#linear-gradient"/>
    <linearGradient id="linear-gradient-11" x1="6.7" y1="144.03" x2="334.85" y2="144.03" xlink:href="#linear-gradient"/>
  </defs>
  <g id="Layer_1-2" data-name="Layer 1">
    <g>
      <g>
        <path class="cls-12" d="M76.91,128h20.04c2.31,0,4.18-1.87,4.18-4.18h0c0-3.11-3.28-5.14-6.05-3.74-6.53,3.31-12.6,5.95-18.17,7.92h0Z"/>
        <path class="cls-1" d="M53.89,136.85c2.66,0,4.58.57,5.7,1.69,1.13,1.14,1.69,2.56,1.69,4.38v2.32c-.02,1.77-.57,3.18-1.69,4.3-1.12,1.12-3.04,1.69-5.7,1.69s-4.58-.57-5.7-1.69c-1.11-1.12-1.67-2.53-1.69-4.31v-2.31c0-1.81.55-3.24,1.69-4.38,1.12-1.12,3.04-1.69,5.7-1.69Z"/>
        <path class="cls-4" d="M37.82,136.85c2.66,0,4.58.57,5.7,1.69,1.13,1.14,1.69,2.56,1.69,4.38v2.32c-.02,1.77-.57,3.18-1.69,4.3-1.12,1.12-3.04,1.69-5.7,1.69s-4.58-.57-5.7-1.69c-1.11-1.12-1.67-2.53-1.69-4.31v-2.31c0-1.81.55-3.24,1.69-4.38,1.12-1.12,3.04-1.69,5.7-1.69Z"/>
        <g>
          <path class="cls-3" d="M76.91,46.26v45.93c0,3.1,3.25,5.12,6.03,3.76,5.3-2.6,10.78-5.61,16.15-8.78,1.27-.75,2.04-2.12,2.04-3.6v-37.31c0-2.31-1.87-4.18-4.18-4.18h-15.85c-2.31,0-4.18,1.87-4.18,4.18Z"/>
          <path class="cls-5" d="M99.74,9.67c-2.24-2.23-5.81-3.35-10.72-3.35s-8.49,1.12-10.72,3.35c-2.23,2.23-3.35,5.1-3.35,8.59v3.6c0,3.49,1.12,6.36,3.35,8.59,2.23,2.24,5.81,3.35,10.72,3.35s8.48-1.11,10.72-3.35c2.23-2.23,3.35-5.1,3.35-8.59v-3.6c0-3.49-1.12-6.36-3.35-8.59Z"/>
          <path class="cls-11" d="M211.35,85.04c0,2.04-.43,3.51-1.29,4.38-.87.87-1.97,1.29-3.36,1.29h-1.78c-1.36-.01-2.44-.44-3.3-1.29-.86-.86-1.29-2.33-1.29-4.38s.43-3.52,1.29-4.38c.86-.86,1.94-1.28,3.31-1.29h1.77c1.39,0,2.49.43,3.36,1.29.86.86,1.29,2.33,1.29,4.38Z"/>
          <path class="cls-8" d="M291.02,51.57c-5.57-7.64-13.81-11.46-24.71-11.46-5.57,0-10.5,1.52-14.82,4.59-4.3,3.05-7.07,6.98-8.27,11.78h-.81V11.07c0-2.31-1.87-4.18-4.18-4.18h-4.95c-1.11,0-2.19.45-2.97,1.23-4.08,4.06-6.81,6.8-10.88,10.87-.79.79-1.24,1.86-1.24,2.98v90.73c0,2.31-1.87,4.18-4.18,4.18h-9.56c-2.99,0-4.99-3.03-3.85-5.79,1.44-3.47,2.52-7.4,3.23-11.77.44-2.66-.93-5.19-3.22-6.62-.45-.28-.87-.61-1.25-1-1.38-1.38-2.08-3.62-2.08-6.67s.7-5.29,2.08-6.68c.39-.38.8-.71,1.25-.99,2.29-1.42,3.68-3.93,3.25-6.59-1.27-7.86-3.7-14.26-7.3-19.21-5.56-7.64-13.81-11.46-24.71-11.46-5.57,0-10.5,1.54-14.81,4.59-4.32,3.05-7.08,6.98-8.28,11.77h-.81V11.07c0-2.31-1.87-4.18-4.18-4.18h-4.95c-1.11,0-2.19.45-2.97,1.23-4.08,4.06-6.81,6.8-10.88,10.87-.79.79-1.24,1.86-1.24,2.98v51.8c0,1.35-.64,2.62-1.75,3.4-9.99,7.07-22.55,15.04-34.59,21.27-12.41,6.41-26.06,10.01-39.98,10.63-2.38.11-4.37-1.81-4.37-4.19v-39.81c0-2.31,1.87-4.18,4.18-4.18h8.65c2.31,0,4.18-1.87,4.18-4.18v-10.46c0-2.31-1.87-4.18-4.18-4.18h-8.65c-2.31,0-4.18-1.87-4.18-4.18v-14.88c0-2.31-1.87-4.18-4.18-4.18h-13.41c-2.31,0-4.18,1.87-4.18,4.18v9.9c0,2.95-.6,5.22-1.8,6.8-1.2,1.58-3.43,2.37-6.71,2.37h-1.87c-2.31,0-4.18,1.87-4.18,4.18v10.46c0,2.31,1.87,4.18,4.18,4.18h3.75c2.31,0,4.18,1.87,4.18,4.18v37.88c0,8.18,2.15,14.39,6.47,18.65,4.3,4.25,10.66,6.38,19.07,6.38h11.73c1.82,0,22.73-2,47.24-16.94,4.89-2.98,9.67-5.78,14.05-8.46,2.78-1.71,6.36.31,6.36,3.57v17.65c0,2.31,1.87,4.18,4.18,4.18h15.86c2.31,0,4.18-1.87,4.18-4.18v-10.22h.81c.66,2.29,1.7,4.45,3.11,6.47,1.43,2.02,3.15,3.76,5.17,5.23,2.01,1.48,4.28,2.62,6.78,3.43,2.38.78,4.92,1.2,7.6,1.24h66.81c2.31,0,4.18-1.87,4.18-4.18v-12.19h.81c.66,2.29,1.7,4.45,3.11,6.47,1.43,2.02,3.14,3.76,5.16,5.23,2.02,1.48,4.29,2.62,6.8,3.45,2.51.81,5.17,1.23,8.02,1.23,10.9,0,19.14-3.85,24.71-11.54,5.57-7.7,8.35-18.85,8.35-33.47s-2.78-25.75-8.35-33.39ZM163.82,110.32c-4.59,0-8.38-1.11-11.37-3.35-3.01-2.24-4.5-5.32-4.5-9.25v-25.37c0-3.93,1.5-7.01,4.5-9.25,2.99-2.24,6.78-3.36,11.37-3.36s8.38,1.61,11.37,4.83c3.01,3.22,4.5,7.57,4.5,13.01v14.89c0,5.47-1.5,9.8-4.5,13.02-2.99,3.21-6.78,4.82-11.37,4.82ZM274.16,92.48c0,5.46-1.5,9.8-4.5,13.02-3.01,3.22-6.8,4.82-11.37,4.82s-8.38-1.11-11.37-3.35c-3.01-2.24-4.5-5.32-4.5-9.25v-25.37c0-3.93,1.5-7.01,4.5-9.25,2.99-2.24,6.78-3.36,11.37-3.36s8.36,1.61,11.37,4.83,4.5,7.57,4.5,13.01v14.89Z"/>
          <path class="cls-7" d="M320.78,33.81c-4.91,0-8.49-1.12-10.72-3.36-2.24-2.24-3.35-5.1-3.35-8.59v-3.6c0-3.49,1.12-6.36,3.35-8.59,2.23-2.24,5.81-3.35,10.72-3.35s8.48,1.12,10.72,3.35c2.24,2.24,3.35,5.1,3.35,8.59v3.6c0,3.49-1.12,6.36-3.35,8.59-2.24,2.24-5.81,3.36-10.72,3.36Z"/>
          <rect class="cls-9" x="308.66" y="42.07" width="24.22" height="85.93" rx="4.18" ry="4.18"/>
        </g>
        <g>
          <rect class="cls-2" x="76.91" y="143.3" width="71.03" height="1.46"/>
          <rect class="cls-10" x="76.91" y="143.3" width="71.03" height="1.46"/>
        </g>
      </g>
      <g>
        <path class="cls-6" d="M5.46,9.89h-1.21V3.5h2.88c1.16,0,1.89.77,1.89,1.98,0,.88-.4,1.55-1.19,1.81l1.31,2.6h-1.34l-1.19-2.46h-1.14v2.46ZM7.02,6.41c.47,0,.75-.26.75-.72v-.42c0-.47-.28-.71-.75-.71h-1.56v1.86h1.56Z"/>
        <path class="cls-6" d="M6.7,13.39c-3.69,0-6.7-3-6.7-6.7S3,0,6.7,0s6.7,3,6.7,6.7-3,6.7-6.7,6.7ZM6.7.76C3.42.76.76,3.42.76,6.7s2.66,5.93,5.93,5.93,5.93-2.66,5.93-5.93S9.97.76,6.7.76Z"/>
      </g>
      <g>
        <path d="M171.6,139.94h-.07l-.76,1.57-2.13,3.87-2.13-3.87-.76-1.57h-.07v7.42h-1.5v-9.69h1.86l2.6,4.93h.08l2.6-4.93h1.78v9.69h-1.5v-7.42Z"/>
        <path d="M180.67,147.36c-.4,0-.7-.11-.92-.34-.21-.23-.34-.52-.39-.87h-.07c-.14.45-.4.8-.77,1.03s-.82.35-1.35.35c-.75,0-1.33-.19-1.73-.58-.4-.39-.6-.91-.6-1.57,0-.72.26-1.26.78-1.63.52-.36,1.29-.54,2.3-.54h1.31v-.61c0-.44-.12-.79-.36-1.03-.24-.24-.62-.36-1.12-.36-.43,0-.77.09-1.04.28s-.5.42-.68.71l-.9-.82c.24-.41.58-.74,1.01-1.01.43-.26,1-.4,1.71-.4.94,0,1.65.22,2.15.65s.75,1.06.75,1.87v3.63h.77v1.24h-.85ZM177.61,146.37c.47,0,.86-.1,1.17-.31s.46-.49.46-.84v-1.04h-1.28c-1.05,0-1.57.32-1.57.97v.25c0,.32.11.57.33.73s.51.24.9.24Z"/>
        <path d="M183,137.08h1.51v6.31h.07l1-1.29,1.74-1.96h1.76l-2.53,2.79,2.83,4.43h-1.8l-2.07-3.44-1,1.08v2.36h-1.51v-10.28Z"/>
        <path d="M191.36,138.85c-.31,0-.54-.07-.69-.22-.14-.15-.21-.34-.21-.57v-.24c0-.23.07-.42.21-.57.14-.15.37-.22.69-.22s.54.08.68.22c.14.15.21.34.21.57v.24c0,.23-.07.42-.21.57-.14.15-.37.22-.68.22ZM190.6,140.14h1.51v7.22h-1.51v-7.22Z"/>
        <path d="M194.28,147.36v-7.22h1.51v1.19h.07c.16-.39.4-.71.72-.97.32-.26.76-.39,1.31-.39.74,0,1.32.24,1.73.73s.62,1.18.62,2.08v4.58h-1.51v-4.39c0-1.13-.45-1.69-1.36-1.69-.19,0-.39.03-.58.08-.19.05-.36.13-.51.23-.15.1-.27.23-.35.39s-.13.34-.13.56v4.83h-1.51Z"/>
        <path d="M208.67,148.04c0,.75-.29,1.32-.86,1.69-.57.38-1.51.57-2.81.57-.59,0-1.09-.04-1.51-.12-.41-.08-.75-.19-1.01-.34-.26-.15-.46-.33-.58-.54-.12-.21-.18-.46-.18-.74,0-.4.11-.71.33-.93.22-.22.52-.38.91-.46v-.15c-.55-.18-.82-.55-.82-1.11,0-.37.12-.65.37-.85.25-.2.55-.34.9-.42v-.06c-.43-.2-.75-.49-.98-.85-.23-.36-.34-.79-.34-1.28,0-.74.25-1.34.74-1.79.49-.45,1.21-.68,2.13-.68.51,0,.94.07,1.31.22v-.19c0-.32.08-.58.23-.76s.39-.27.72-.27h1.11v1.22h-1.47v.29c.32.21.57.49.75.83.18.34.26.72.26,1.13,0,.73-.25,1.32-.75,1.77-.5.45-1.21.67-2.14.67-.35,0-.67-.04-.94-.11-.19.06-.35.15-.49.27-.14.12-.21.27-.21.45s.09.33.26.42c.18.08.43.13.75.13h1.78c.89,0,1.53.18,1.93.53s.6.84.6,1.47ZM207.25,148.21c0-.25-.09-.45-.29-.6-.19-.15-.53-.22-1.03-.22h-2.44c-.33.19-.5.47-.5.83,0,.3.12.53.35.72.24.18.64.27,1.2.27h.94c1.18,0,1.76-.33,1.76-1ZM204.98,143.79c.45,0,.79-.1,1.04-.3s.37-.51.37-.92v-.28c0-.42-.12-.73-.37-.92s-.59-.3-1.04-.3-.79.1-1.03.3-.37.51-.37.92v.28c0,.42.12.73.37.92s.59.3,1.03.3Z"/>
        <path d="M219.14,143.14h-4.39v4.22h-1.57v-9.69h1.57v4.08h4.39v-4.08h1.57v9.69h-1.57v-4.22Z"/>
        <path d="M225.82,147.53c-.52,0-.98-.09-1.39-.26s-.75-.43-1.04-.76c-.29-.33-.51-.73-.66-1.19s-.23-.99-.23-1.56.08-1.09.23-1.56.37-.87.66-1.2c.29-.33.63-.58,1.04-.76.41-.18.87-.26,1.39-.26s.99.09,1.4.28.74.44,1.01.77c.27.33.47.71.6,1.15.13.44.2.9.2,1.4v.57h-4.96v.23c0,.55.16,1,.49,1.36.33.35.8.53,1.41.53.44,0,.82-.1,1.12-.29.31-.19.56-.46.78-.79l.89.88c-.27.45-.66.8-1.17,1.07-.51.26-1.1.4-1.78.4ZM225.82,141.15c-.26,0-.5.05-.72.14-.22.09-.4.22-.56.39-.15.17-.27.37-.35.6-.08.23-.13.49-.13.76v.1h3.36v-.14c0-.56-.14-1-.43-1.34-.29-.34-.68-.51-1.18-.51Z"/>
        <path d="M236,147.36c-.4,0-.7-.11-.92-.34s-.34-.52-.39-.87h-.07c-.14.45-.39.8-.76,1.03s-.82.35-1.35.35c-.75,0-1.33-.19-1.73-.58-.4-.39-.6-.91-.6-1.57,0-.72.26-1.26.78-1.63.52-.36,1.29-.54,2.3-.54h1.31v-.61c0-.44-.12-.79-.36-1.03s-.62-.36-1.12-.36c-.43,0-.77.09-1.04.28s-.5.42-.68.71l-.9-.82c.24-.41.58-.74,1.01-1.01.44-.26,1-.4,1.71-.4.94,0,1.65.22,2.15.65.5.44.75,1.06.75,1.87v3.63h.76v1.24h-.85ZM232.94,146.37c.47,0,.86-.1,1.17-.31.31-.21.46-.49.46-.84v-1.04h-1.28c-1.05,0-1.57.32-1.57.97v.25c0,.32.11.57.33.73.22.16.52.24.9.24Z"/>
        <path d="M240.29,147.36c-.53,0-.93-.14-1.19-.41-.27-.27-.4-.66-.4-1.16v-4.42h-1.13v-1.24h.61c.25,0,.42-.06.52-.17s.15-.29.15-.54v-1.26h1.36v1.97h1.51v1.24h-1.51v4.75h1.4v1.24h-1.32Z"/>
        <path d="M243.36,137.08h1.51v4.25h.07c.16-.39.4-.71.72-.97.32-.26.76-.39,1.31-.39.74,0,1.32.24,1.73.73s.62,1.18.62,2.08v4.58h-1.51v-4.4c0-1.12-.45-1.68-1.36-1.68-.19,0-.39.03-.58.08-.19.05-.36.13-.51.23-.15.1-.27.23-.35.39s-.13.34-.13.54v4.85h-1.51v-10.28Z"/>
        <path d="M254.2,147.53c-.52,0-.98-.09-1.39-.26s-.75-.43-1.03-.76c-.28-.33-.49-.73-.64-1.19-.15-.47-.22-.99-.22-1.56s.07-1.09.22-1.56c.15-.47.36-.87.64-1.2.28-.33.62-.58,1.03-.76.41-.18.87-.26,1.39-.26.72,0,1.32.16,1.78.49.46.32.8.76,1.01,1.29l-1.25.58c-.1-.33-.28-.6-.53-.8s-.59-.3-1.01-.3c-.56,0-.97.17-1.26.52-.28.35-.42.8-.42,1.35v1.29c0,.55.14,1,.42,1.35.28.35.7.52,1.26.52.45,0,.8-.11,1.06-.33.26-.22.47-.51.63-.87l1.15.61c-.24.59-.6,1.05-1.08,1.37-.48.32-1.07.48-1.76.48Z"/>
        <path d="M263.78,147.36c-.4,0-.7-.11-.92-.34s-.34-.52-.39-.87h-.07c-.14.45-.39.8-.76,1.03s-.82.35-1.35.35c-.75,0-1.33-.19-1.73-.58-.4-.39-.6-.91-.6-1.57,0-.72.26-1.26.78-1.63.52-.36,1.29-.54,2.3-.54h1.31v-.61c0-.44-.12-.79-.36-1.03s-.62-.36-1.12-.36c-.43,0-.77.09-1.04.28s-.5.42-.68.71l-.9-.82c.24-.41.58-.74,1.01-1.01.44-.26,1-.4,1.71-.4.94,0,1.65.22,2.15.65.5.44.75,1.06.75,1.87v3.63h.76v1.24h-.85ZM260.73,146.37c.47,0,.86-.1,1.17-.31.31-.21.46-.49.46-.84v-1.04h-1.28c-1.05,0-1.57.32-1.57.97v.25c0,.32.11.57.33.73.22.16.52.24.9.24Z"/>
        <path d="M266.12,147.36v-7.22h1.51v1.39h.07c.1-.37.31-.69.64-.97.32-.28.77-.42,1.35-.42h.4v1.46h-.6c-.6,0-1.06.1-1.38.29-.32.19-.48.48-.48.86v4.61h-1.51Z"/>
        <path d="M274.2,147.53c-.52,0-.98-.09-1.39-.26s-.75-.43-1.04-.76c-.29-.33-.51-.73-.66-1.19s-.23-.99-.23-1.56.08-1.09.23-1.56.37-.87.66-1.2c.29-.33.63-.58,1.04-.76.41-.18.87-.26,1.39-.26s.99.09,1.4.28.74.44,1.01.77c.27.33.47.71.6,1.15.13.44.2.9.2,1.4v.57h-4.96v.23c0,.55.16,1,.49,1.36.33.35.8.53,1.41.53.44,0,.82-.1,1.12-.29.31-.19.56-.46.78-.79l.89.88c-.27.45-.66.8-1.17,1.07-.51.26-1.1.4-1.78.4ZM274.2,141.15c-.26,0-.5.05-.72.14-.22.09-.4.22-.56.39-.15.17-.27.37-.35.6-.08.23-.13.49-.13.76v.1h3.36v-.14c0-.56-.14-1-.43-1.34-.29-.34-.68-.51-1.18-.51Z"/>
        <path d="M285.38,147.53c-.82,0-1.51-.15-2.08-.45-.57-.3-1.06-.69-1.47-1.19l1.08-1.01c.34.42.72.73,1.13.94s.88.32,1.41.32c.62,0,1.09-.14,1.4-.42.31-.28.47-.65.47-1.12,0-.38-.11-.68-.33-.9s-.62-.39-1.18-.5l-.86-.15c-.94-.18-1.65-.49-2.13-.93-.47-.45-.71-1.06-.71-1.83,0-.43.08-.81.24-1.16.16-.35.39-.64.68-.87.29-.24.65-.42,1.06-.55.42-.13.88-.19,1.4-.19.73,0,1.37.13,1.9.38s1,.62,1.37,1.1l-1.1.97c-.25-.32-.56-.58-.92-.78-.36-.19-.81-.29-1.35-.29s-.99.11-1.29.33c-.31.22-.46.55-.46.97s.13.71.38.91c.25.2.64.35,1.17.45l.86.18c.97.19,1.68.5,2.13.94.45.44.67,1.05.67,1.83,0,.45-.08.87-.24,1.24-.16.37-.39.69-.69.95s-.67.47-1.1.61c-.44.14-.93.22-1.49.22Z"/>
        <path d="M290.67,147.36v-7.22h1.51v1.19h.07c.07-.19.16-.36.27-.53.11-.17.24-.31.39-.44.15-.12.33-.22.54-.29.21-.07.45-.1.73-.1.49,0,.93.12,1.31.36.38.24.66.61.83,1.11h.04c.13-.41.38-.75.75-1.04.37-.29.85-.43,1.43-.43.72,0,1.28.24,1.68.73s.6,1.18.6,2.08v4.58h-1.51v-4.4c0-.56-.11-.98-.32-1.26-.21-.28-.55-.42-1.01-.42-.19,0-.38.03-.56.08-.18.05-.33.13-.46.23-.13.1-.24.23-.33.39-.08.16-.13.34-.13.54v4.85h-1.51v-4.4c0-1.12-.44-1.68-1.32-1.68-.19,0-.37.03-.55.08-.18.05-.34.13-.48.23-.14.1-.25.23-.33.39s-.13.34-.13.54v4.85h-1.51Z"/>
        <path d="M308.21,147.36c-.4,0-.7-.11-.92-.34s-.34-.52-.39-.87h-.07c-.14.45-.39.8-.76,1.03s-.82.35-1.35.35c-.75,0-1.33-.19-1.73-.58-.4-.39-.6-.91-.6-1.57,0-.72.26-1.26.78-1.63.52-.36,1.29-.54,2.3-.54h1.31v-.61c0-.44-.12-.79-.36-1.03s-.62-.36-1.12-.36c-.43,0-.77.09-1.04.28s-.5.42-.68.71l-.9-.82c.24-.41.58-.74,1.01-1.01.44-.26,1-.4,1.71-.4.94,0,1.65.22,2.15.65.5.44.75,1.06.75,1.87v3.63h.76v1.24h-.85ZM305.15,146.37c.47,0,.86-.1,1.17-.31.31-.21.46-.49.46-.84v-1.04h-1.28c-1.05,0-1.57.32-1.57.97v.25c0,.32.11.57.33.73.22.16.52.24.9.24Z"/>
        <path d="M310.54,147.36v-7.22h1.51v1.39h.07c.1-.37.31-.69.64-.97.32-.28.77-.42,1.35-.42h.4v1.46h-.6c-.6,0-1.06.1-1.38.29-.32.19-.48.48-.48.86v4.61h-1.51Z"/>
        <path d="M317.92,147.36c-.53,0-.93-.14-1.19-.41-.27-.27-.4-.66-.4-1.16v-4.42h-1.13v-1.24h.61c.25,0,.42-.06.52-.17s.15-.29.15-.54v-1.26h1.36v1.97h1.51v1.24h-1.51v4.75h1.4v1.24h-1.32Z"/>
        <path d="M323.76,147.53c-.52,0-.98-.09-1.39-.26s-.75-.43-1.04-.76c-.29-.33-.51-.73-.66-1.19s-.23-.99-.23-1.56.08-1.09.23-1.56.37-.87.66-1.2c.29-.33.63-.58,1.04-.76.41-.18.87-.26,1.39-.26s.99.09,1.4.28.74.44,1.01.77c.27.33.47.71.6,1.15.13.44.2.9.2,1.4v.57h-4.96v.23c0,.55.16,1,.49,1.36.33.35.8.53,1.41.53.44,0,.82-.1,1.12-.29.31-.19.56-.46.78-.79l.89.88c-.27.45-.66.8-1.17,1.07-.51.26-1.1.4-1.78.4ZM323.76,141.15c-.26,0-.5.05-.72.14-.22.09-.4.22-.56.39-.15.17-.27.37-.35.6-.08.23-.13.49-.13.76v.1h3.36v-.14c0-.56-.14-1-.43-1.34-.29-.34-.68-.51-1.18-.51Z"/>
        <path d="M328.65,147.36v-7.22h1.51v1.39h.07c.1-.37.31-.69.64-.97.32-.28.77-.42,1.35-.42h.4v1.46h-.6c-.6,0-1.06.1-1.38.29-.32.19-.48.48-.48.86v4.61h-1.51Z"/>
      </g>
    </g>
  </g>
</svg>