<svg width="143" height="64" viewBox="0 0 143 64" fill="none" xmlns="http://www.w3.org/2000/svg">
<path d="M33.1153 54.1763H41.6136C42.5932 54.1763 43.3862 53.3849 43.3862 52.4071C43.3862 51.0908 41.9953 50.2316 40.8206 50.8242C38.0514 52.2251 35.4773 53.3425 33.1153 54.1763Z" fill="url(#paint0_linear_1093_2276)"/>
<path d="M23.3532 57.9219C24.4812 57.9219 25.2954 58.1631 25.7704 58.6372C26.2496 59.1197 26.487 59.7207 26.487 60.491V61.473C26.4786 62.2221 26.2453 62.8189 25.7704 63.2929C25.2954 63.767 24.4812 64.0082 23.3532 64.0082C22.2251 64.0082 21.4109 63.767 20.936 63.2929C20.4652 62.8189 20.2278 62.2221 20.2193 61.4687V60.491C20.2193 59.7249 20.4525 59.1197 20.936 58.6372C21.4109 58.1631 22.2251 57.9219 23.3532 57.9219Z" fill="url(#paint1_linear_1093_2276)"/>
<path d="M16.5384 57.9219C17.6664 57.9219 18.4806 58.1631 18.9556 58.6372C19.4348 59.1197 19.6722 59.7207 19.6722 60.491V61.473C19.6638 62.2221 19.4305 62.8189 18.9556 63.2929C18.4806 63.767 17.6664 64.0082 16.5384 64.0082C15.4103 64.0082 14.5961 63.767 14.1212 63.2929C13.6504 62.8189 13.413 62.2221 13.4045 61.4687V60.491C13.4045 59.7249 13.6377 59.1197 14.1212 58.6372C14.5961 58.1631 15.4103 57.9219 16.5384 57.9219Z" fill="url(#paint2_linear_1093_2276)"/>
<path d="M33.1153 19.5797V39.0197C33.1153 40.3318 34.4935 41.1868 35.6724 40.6112C37.92 39.5107 40.2439 38.2367 42.5211 36.895C43.0597 36.5776 43.3862 35.9977 43.3862 35.3713V19.5797C43.3862 18.602 42.5932 17.8105 41.6136 17.8105H34.8921C33.9125 17.8105 33.1195 18.602 33.1195 19.5797H33.1153Z" fill="url(#paint3_linear_1093_2276)"/>
<path d="M42.7968 4.0927C41.8469 3.14885 40.3329 2.6748 38.2508 2.6748C36.1686 2.6748 34.6504 3.14885 33.7047 4.0927C32.759 5.03655 32.2841 6.25129 32.2841 7.72844V9.25215C32.2841 10.7293 32.759 11.944 33.7047 12.8879C34.6504 13.836 36.1686 14.3058 38.2508 14.3058C40.3329 14.3058 41.8469 13.836 42.7968 12.8879C43.7425 11.944 44.2174 10.7293 44.2174 9.25215V7.72844C44.2174 6.25129 43.7425 5.03655 42.7968 4.0927Z" fill="url(#paint4_linear_1093_2276)"/>
<path d="M90.1273 35.9931C90.1273 36.8565 89.9449 37.4787 89.5802 37.8469C89.2113 38.2152 88.7448 38.3929 88.1554 38.3929H87.4005C86.8238 38.3887 86.3658 38.2067 86.0011 37.8469C85.6364 37.4829 85.454 36.8608 85.454 35.9931C85.454 35.1254 85.6364 34.5033 86.0011 34.1393C86.3658 33.7753 86.8238 33.5975 87.4048 33.5933H88.1554C88.7448 33.5933 89.2113 33.7753 89.5802 34.1393C89.9449 34.5033 90.1273 35.1254 90.1273 35.9931Z" fill="url(#paint5_linear_1093_2276)"/>
<path d="M123.913 21.8269C121.551 18.5933 118.057 16.9765 113.434 16.9765C111.072 16.9765 108.981 17.6198 107.149 18.9192C105.326 20.2101 104.151 21.8735 103.642 23.9051H103.299V4.68521C103.299 3.7075 102.506 2.91602 101.526 2.91602H99.4272C98.9564 2.91602 98.4985 3.10648 98.1677 3.43662C96.4375 5.15502 95.2798 6.31473 93.5538 8.03737C93.2188 8.37174 93.0279 8.82462 93.0279 9.29866V47.7004C93.0279 48.6781 92.2349 49.4695 91.2553 49.4695H87.2012C85.9332 49.4695 85.0851 48.1871 85.5685 47.0189C86.1792 45.5502 86.6372 43.8868 86.9383 42.0372C87.1249 40.9114 86.5439 39.8406 85.5728 39.2353C85.382 39.1168 85.2038 38.9771 85.0427 38.812C84.4575 38.228 84.1606 37.2799 84.1606 35.989C84.1606 34.698 84.4575 33.75 85.0427 33.1616C85.2081 33.0008 85.382 32.8611 85.5728 32.7426C86.5439 32.1416 87.1334 31.0792 86.951 29.9534C86.4124 26.6266 85.382 23.9178 83.8553 21.8227C81.4975 18.5891 77.9989 16.9722 73.3765 16.9722C71.0144 16.9722 68.9238 17.624 67.096 18.915C65.264 20.2059 64.0936 21.8693 63.5847 23.8966H63.2412V4.68521C63.2412 3.7075 62.4482 2.91602 61.4686 2.91602H59.3695C58.8988 2.91602 58.4408 3.10648 58.11 3.43662C56.3798 5.15502 55.2221 6.31473 53.4961 8.03737C53.1611 8.37174 52.9702 8.82462 52.9702 9.29866V31.2231C52.9702 31.7945 52.6988 32.3321 52.2281 32.6622C47.9917 35.6546 42.6653 39.0279 37.5595 41.6648C32.2968 44.3778 26.5082 45.9015 20.6052 46.1639C19.5959 46.2105 18.752 45.3979 18.752 44.3905V27.5408C18.752 26.5631 19.545 25.7716 20.5246 25.7716H24.1928C25.1724 25.7716 25.9654 24.9802 25.9654 24.0025V19.5752C25.9654 18.5975 25.1724 17.806 24.1928 17.806H20.5246C19.545 17.806 18.752 17.0146 18.752 16.0368V9.73884C18.752 8.76113 17.959 7.96965 16.9794 7.96965H11.2926C10.313 7.96965 9.51999 8.76113 9.51999 9.73884V13.929C9.51999 15.1776 9.26554 16.1384 8.75666 16.8072C8.24777 17.4759 7.3021 17.8103 5.91115 17.8103H5.11813C4.13853 17.8103 3.34552 18.6017 3.34552 19.5795V24.0067C3.34552 24.9844 4.13853 25.7759 5.11813 25.7759H6.7084C7.688 25.7759 8.48101 26.5674 8.48101 27.5451V43.5779C8.48101 47.0401 9.39277 49.6685 11.2248 51.4715C13.0483 53.2704 15.7453 54.1719 19.3118 54.1719H24.2861C25.0579 54.1719 33.9252 53.3254 44.3192 47.002C46.3929 45.7407 48.42 44.5556 50.2774 43.4213C51.4563 42.6975 52.9745 43.5525 52.9745 44.9323V52.4027C52.9745 53.3804 53.7675 54.1719 54.7471 54.1719H61.4729C62.4525 54.1719 63.2455 53.3804 63.2455 52.4027V48.077H63.589C63.8689 49.0463 64.3099 49.9605 64.9078 50.8155C65.5143 51.6705 66.2437 52.4069 67.1003 53.0291C67.9527 53.6555 68.9153 54.138 69.9755 54.4809C70.9848 54.811 72.0619 54.9888 73.1984 55.0057H101.531C102.51 55.0057 103.303 54.2142 103.303 53.2365V48.077H103.647C103.927 49.0463 104.368 49.9605 104.966 50.8155C105.572 51.6705 106.297 52.4069 107.154 53.0291C108.01 53.6555 108.973 54.138 110.037 54.4893C111.102 54.8322 112.23 55.0099 113.438 55.0099C118.061 55.0099 121.555 53.3804 123.917 50.1256C126.279 46.8665 127.458 42.1473 127.458 35.9593C127.458 29.7714 126.279 25.0606 123.917 21.8269H123.913ZM69.9712 46.693C68.0247 46.693 66.4175 46.2232 65.1495 45.2751C63.8731 44.327 63.2412 43.0234 63.2412 41.36V30.6221C63.2412 28.9587 63.8773 27.6551 65.1495 26.707C66.4175 25.7589 68.0247 25.2849 69.9712 25.2849C71.9177 25.2849 73.5249 25.9663 74.7929 27.3292C76.0694 28.6921 76.7012 30.5332 76.7012 32.8357V39.138C76.7012 41.4531 76.0651 43.2858 74.7929 44.6487C73.5249 46.0073 71.9177 46.6888 69.9712 46.6888V46.693ZM116.763 39.1422C116.763 41.4531 116.127 43.2901 114.855 44.6529C113.578 46.0158 111.971 46.693 110.033 46.693C108.095 46.693 106.479 46.2232 105.211 45.2751C103.935 44.327 103.303 43.0234 103.303 41.36V30.6221C103.303 28.9587 103.939 27.6551 105.211 26.707C106.479 25.7589 108.087 25.2849 110.033 25.2849C111.98 25.2849 113.578 25.9663 114.855 27.3292C116.131 28.6921 116.763 30.5332 116.763 32.8357V39.138V39.1422Z" fill="url(#paint6_linear_1093_2276)"/>
<path d="M136.533 14.31C134.451 14.31 132.933 13.836 131.987 12.8879C131.037 11.9398 130.567 10.7293 130.567 9.25215V7.72844C130.567 6.25129 131.042 5.03655 131.987 4.0927C132.933 3.14461 134.451 2.6748 136.533 2.6748C138.616 2.6748 140.129 3.14885 141.079 4.0927C142.029 5.04079 142.5 6.25129 142.5 7.72844V9.25215C142.5 10.7293 142.025 11.944 141.079 12.8879C140.129 13.836 138.616 14.31 136.533 14.31Z" fill="url(#paint7_linear_1093_2276)"/>
<path d="M139.892 17.8062H133.166C132.187 17.8062 131.394 18.5982 131.394 19.5753V52.407C131.394 53.3841 132.187 54.1762 133.166 54.1762H139.892C140.871 54.1762 141.665 53.3841 141.665 52.407V19.5753C141.665 18.5982 140.871 17.8062 139.892 17.8062Z" fill="url(#paint8_linear_1093_2276)"/>
<path d="M63.237 60.6519H33.1153V61.2698H63.237V60.6519Z" fill="url(#paint9_linear_1093_2276)"/>
<path d="M63.237 60.6519H33.1153V61.2698H63.237V60.6519Z" fill="url(#paint10_linear_1093_2276)"/>
<path d="M2.81543 4.18603H2.30231V1.48145H3.52363C4.01555 1.48145 4.32512 1.80735 4.32512 2.31949C4.32512 2.69195 4.1555 2.97553 3.82048 3.08557L4.37601 4.18603H3.80776L3.30311 3.14483H2.81967V4.18603H2.81543ZM3.47698 2.71311C3.6763 2.71311 3.79504 2.60306 3.79504 2.40837V2.2306C3.79504 2.03167 3.6763 1.93009 3.47698 1.93009H2.81543V2.71734H3.47698V2.71311Z" fill="#231F20"/>
<path d="M3.34127 5.66735C1.77645 5.66735 0.5 4.39759 0.5 2.83156C0.5 1.26552 1.77221 0 3.34127 0C4.91033 0 6.18254 1.26976 6.18254 2.83579C6.18254 4.40182 4.91033 5.67158 3.34127 5.67158V5.66735ZM3.34127 0.321672C1.95032 0.321672 0.822294 1.44752 0.822294 2.83579C0.822294 4.22406 1.95032 5.34568 3.33703 5.34568C4.72374 5.34568 5.85177 4.21983 5.85177 2.83579C5.85177 1.45176 4.72798 0.321672 3.34127 0.321672Z" fill="#231F20"/>
<path d="M73.2705 59.2298H73.2408L72.9185 59.8943L72.0152 61.5323L71.112 59.8943L70.7897 59.2298H70.76V62.3704H70.1239V58.269H70.9127L72.0152 60.3557H72.0492L73.1518 58.269H73.9066V62.3704H73.2705V59.2298Z" fill="black"/>
<path d="M77.1168 62.37C76.9472 62.37 76.82 62.3235 76.7267 62.2261C76.6376 62.1288 76.5825 62.006 76.5613 61.8579H76.5316C76.4722 62.0483 76.362 62.1965 76.2051 62.2938C76.0482 62.3912 75.8573 62.442 75.6326 62.442C75.3145 62.442 75.0686 62.3616 74.8989 62.1965C74.7293 62.0314 74.6445 61.8113 74.6445 61.532C74.6445 61.2272 74.7547 60.9987 74.9753 60.8421C75.1958 60.6897 75.5223 60.6135 75.9506 60.6135H76.5061V60.3553C76.5061 60.1691 76.4553 60.021 76.3535 59.9194C76.2517 59.8178 76.0906 59.767 75.8785 59.767C75.6962 59.767 75.552 59.8051 75.4375 59.8855C75.323 59.966 75.2255 60.0633 75.1491 60.186L74.7675 59.839C74.8692 59.6654 75.0134 59.5258 75.1958 59.4115C75.3781 59.3014 75.6198 59.2422 75.9209 59.2422C76.3196 59.2422 76.6206 59.3353 76.8327 59.5173C77.0447 59.6993 77.1507 59.966 77.1507 60.3088V61.8452H77.4773V62.37H77.1168ZM75.8192 61.951C76.0185 61.951 76.1839 61.9087 76.3153 61.8198C76.4468 61.7309 76.5104 61.6124 76.5104 61.4643V61.0241H75.9676C75.5223 61.0241 75.3018 61.1595 75.3018 61.4346V61.5404C75.3018 61.6759 75.3484 61.7817 75.4417 61.8494C75.535 61.9171 75.658 61.951 75.8234 61.951H75.8192Z" fill="black"/>
<path d="M78.1049 58.019H78.7452V60.6898H78.7749L79.199 60.1438L79.9369 59.3142H80.6832L79.6103 60.4951L80.8105 62.3701H80.0471L79.1693 60.9141L78.7452 61.3712V62.3701H78.1049V58.019Z" fill="black"/>
<path d="M81.6501 58.7684C81.5187 58.7684 81.4211 58.7387 81.3575 58.6753C81.2981 58.6118 81.2685 58.5313 81.2685 58.434V58.3324C81.2685 58.2351 81.2981 58.1547 81.3575 58.0912C81.4169 58.0277 81.5144 57.998 81.6501 57.998C81.7858 57.998 81.8791 58.0319 81.9385 58.0912C81.9979 58.1547 82.0275 58.2351 82.0275 58.3324V58.434C82.0275 58.5313 81.9979 58.6118 81.9385 58.6753C81.8791 58.7387 81.7816 58.7684 81.6501 58.7684ZM81.3278 59.3144H81.9682V62.3702H81.3278V59.3144Z" fill="black"/>
<path d="M82.8884 62.37V59.3141H83.5288V59.8178H83.5584C83.6263 59.6527 83.7281 59.5173 83.8638 59.4073C83.9995 59.2972 84.1861 59.2422 84.4193 59.2422C84.7331 59.2422 84.9791 59.3438 85.1529 59.5512C85.3268 59.7586 85.4159 60.0506 85.4159 60.4315V62.37H84.7755V60.5119C84.7755 60.0337 84.5847 59.7966 84.1988 59.7966C84.1182 59.7966 84.0334 59.8093 83.9528 59.8305C83.8723 59.8517 83.8002 59.8855 83.7366 59.9279C83.6729 59.9702 83.6221 60.0252 83.5881 60.0929C83.5542 60.1606 83.533 60.2368 83.533 60.3299V62.3743H82.8927L82.8884 62.37Z" fill="black"/>
<path d="M88.9908 62.6579C88.9908 62.9753 88.8678 63.2166 88.6261 63.3732C88.3844 63.534 87.9857 63.6145 87.4344 63.6145C87.1842 63.6145 86.9722 63.5975 86.7941 63.5637C86.6202 63.5298 86.476 63.4833 86.3658 63.4198C86.2555 63.3563 86.1707 63.2801 86.1198 63.1912C86.0689 63.1023 86.0435 62.9965 86.0435 62.878C86.0435 62.7087 86.0901 62.5775 86.1834 62.4844C86.2767 62.3913 86.404 62.3235 86.5693 62.2897V62.2262C86.3361 62.15 86.2216 61.9934 86.2216 61.7564C86.2216 61.5998 86.2725 61.4813 86.3785 61.3966C86.4845 61.312 86.6118 61.2527 86.7602 61.2189V61.1935C86.5778 61.1088 86.4421 60.9861 86.3446 60.8337C86.247 60.6813 86.2004 60.4993 86.2004 60.2919C86.2004 59.9787 86.3064 59.7248 86.5142 59.5343C86.722 59.3438 87.0273 59.2465 87.4175 59.2465C87.6338 59.2465 87.8161 59.2761 87.973 59.3396V59.2592C87.973 59.1238 88.0069 59.0137 88.0706 58.9375C88.1342 58.8613 88.2359 58.8232 88.3759 58.8232H88.8466V59.3396H88.2232V59.4624C88.3589 59.5512 88.4649 59.6698 88.5413 59.8137C88.6176 59.9576 88.6515 60.1184 88.6515 60.2919C88.6515 60.6009 88.5455 60.8506 88.3335 61.0411C88.1214 61.2316 87.8203 61.3247 87.426 61.3247C87.2775 61.3247 87.1418 61.3077 87.0273 61.2781C86.9468 61.3035 86.8789 61.3416 86.8195 61.3924C86.7602 61.4432 86.7305 61.5067 86.7305 61.5828C86.7305 61.659 86.7687 61.7225 86.8407 61.7606C86.9171 61.7945 87.0231 61.8156 87.1588 61.8156H87.9136C88.2911 61.8156 88.5625 61.8918 88.7321 62.04C88.9017 62.1881 88.9865 62.3955 88.9865 62.6621L88.9908 62.6579ZM88.3886 62.7299C88.3886 62.6241 88.3504 62.5394 88.2656 62.4759C88.1851 62.4124 88.0409 62.3828 87.8288 62.3828H86.7941C86.6542 62.4632 86.5821 62.5817 86.5821 62.7341C86.5821 62.8611 86.633 62.9584 86.7305 63.0388C86.8323 63.115 87.0019 63.1531 87.2394 63.1531H87.638C88.1384 63.1531 88.3844 63.0134 88.3844 62.7299H88.3886ZM87.426 60.8591C87.6168 60.8591 87.761 60.8168 87.867 60.7321C87.973 60.6475 88.0239 60.5163 88.0239 60.3427V60.2242C88.0239 60.0464 87.973 59.9152 87.867 59.8348C87.761 59.7544 87.6168 59.7078 87.426 59.7078C87.2351 59.7078 87.0909 59.7502 86.9892 59.8348C86.8874 59.9195 86.8323 60.0507 86.8323 60.2242V60.3427C86.8323 60.5205 86.8832 60.6517 86.9892 60.7321C87.0952 60.8125 87.2394 60.8591 87.426 60.8591Z" fill="black"/>
<path d="M93.4308 60.5842H91.5691V62.3704H90.9033V58.269H91.5691V59.9959H93.4308V58.269H94.0966V62.3704H93.4308V60.5842Z" fill="black"/>
<path d="M96.2636 62.4421C96.0431 62.4421 95.848 62.404 95.6741 62.3321C95.5003 62.2601 95.3561 62.1501 95.2331 62.0104C95.1101 61.8707 95.0168 61.7015 94.9532 61.5068C94.8896 61.3121 94.8557 61.0877 94.8557 60.8465C94.8557 60.6052 94.8896 60.3851 94.9532 60.1862C95.0168 59.9873 95.1101 59.818 95.2331 59.6783C95.3561 59.5386 95.5003 59.4328 95.6741 59.3566C95.848 59.2804 96.0431 59.2466 96.2636 59.2466C96.4841 59.2466 96.6834 59.2847 96.8573 59.3651C97.0312 59.4455 97.1711 59.5513 97.2856 59.691C97.4001 59.8307 97.4849 59.9915 97.54 60.1777C97.5952 60.364 97.6249 60.5587 97.6249 60.7703V61.0115H95.5215V61.1089C95.5215 61.3417 95.5893 61.5321 95.7293 61.6845C95.8692 61.8327 96.0685 61.9088 96.3272 61.9088C96.5138 61.9088 96.6749 61.8665 96.8022 61.7861C96.9336 61.7057 97.0396 61.5914 97.1329 61.4517L97.5104 61.8242C97.3959 62.0147 97.2305 62.1628 97.0142 62.2771C96.7979 62.3871 96.5477 62.4464 96.2594 62.4464L96.2636 62.4421ZM96.2636 59.7418C96.1533 59.7418 96.0516 59.7629 95.9583 59.801C95.865 59.8391 95.7886 59.8942 95.7208 59.9661C95.6572 60.0381 95.6063 60.1227 95.5724 60.2201C95.5384 60.3174 95.5172 60.4275 95.5172 60.5417V60.5841H96.9421V60.5248C96.9421 60.2878 96.8827 60.1016 96.7598 59.9576C96.6368 59.8137 96.4714 59.7418 96.2594 59.7418H96.2636Z" fill="black"/>
<path d="M100.581 62.37C100.411 62.37 100.284 62.3235 100.19 62.2261C100.097 62.1288 100.046 62.006 100.025 61.8579H99.9954C99.936 62.0483 99.83 62.1965 99.6731 62.2938C99.5162 62.3912 99.3254 62.442 99.1006 62.442C98.7826 62.442 98.5366 62.3616 98.367 62.1965C98.1974 62.0314 98.1125 61.8113 98.1125 61.532C98.1125 61.2272 98.2228 60.9987 98.4433 60.8421C98.6638 60.6897 98.9904 60.6135 99.4187 60.6135H99.9742V60.3553C99.9742 60.1691 99.9233 60.021 99.8215 59.9194C99.7198 59.8178 99.5586 59.767 99.3466 59.767C99.1642 59.767 99.0201 59.8051 98.9056 59.8855C98.7911 59.966 98.6935 60.0633 98.6172 60.186L98.2355 59.839C98.3373 59.6654 98.4815 59.5258 98.6638 59.4115C98.8504 59.3014 99.0879 59.2422 99.389 59.2422C99.7876 59.2422 100.089 59.3353 100.301 59.5173C100.513 59.7035 100.619 59.966 100.619 60.3088V61.8452H100.941V62.37H100.581ZM99.283 61.951C99.4823 61.951 99.6477 61.9087 99.7791 61.8198C99.9106 61.7309 99.9742 61.6124 99.9742 61.4643V61.0241H99.4314C98.9861 61.0241 98.7656 61.1595 98.7656 61.4346V61.5404C98.7656 61.6759 98.8123 61.7817 98.9056 61.8494C98.9988 61.9171 99.1261 61.951 99.2872 61.951H99.283Z" fill="black"/>
<path d="M102.4 62.3705C102.175 62.3705 102.006 62.3112 101.895 62.1969C101.781 62.0827 101.726 61.9176 101.726 61.706V59.8352H101.246V59.3104H101.505C101.611 59.3104 101.683 59.285 101.726 59.2384C101.768 59.1919 101.789 59.1157 101.789 59.0099V58.4766H102.366V59.3104H103.006V59.8352H102.366V61.8456H102.96V62.3705H102.4Z" fill="black"/>
<path d="M103.702 58.019H104.342V59.8179H104.372C104.44 59.6528 104.541 59.5174 104.677 59.4073C104.813 59.2973 104.999 59.2422 105.233 59.2422C105.546 59.2422 105.792 59.3438 105.966 59.5512C106.14 59.7586 106.229 60.0507 106.229 60.4316V62.3701H105.589V60.5078C105.589 60.0337 105.398 59.7967 105.012 59.7967C104.932 59.7967 104.847 59.8094 104.766 59.8306C104.686 59.8517 104.614 59.8856 104.55 59.9279C104.486 59.9702 104.435 60.0253 104.402 60.093C104.368 60.1607 104.346 60.2369 104.346 60.3215V62.3743H103.706V58.0233L103.702 58.019Z" fill="black"/>
<path d="M108.299 62.4421C108.078 62.4421 107.883 62.404 107.709 62.3321C107.535 62.2601 107.391 62.1501 107.272 62.0104C107.154 61.8707 107.065 61.7015 107.001 61.5068C106.937 61.3078 106.908 61.0877 106.908 60.8465C106.908 60.6052 106.937 60.3851 107.001 60.1862C107.065 59.9873 107.154 59.818 107.272 59.6783C107.391 59.5386 107.535 59.4328 107.709 59.3566C107.883 59.2804 108.078 59.2466 108.299 59.2466C108.604 59.2466 108.858 59.3143 109.054 59.454C109.249 59.5894 109.393 59.7756 109.482 60L108.952 60.2455C108.909 60.1058 108.833 59.9915 108.727 59.9069C108.621 59.8222 108.477 59.7799 108.299 59.7799C108.061 59.7799 107.887 59.8518 107.764 60C107.646 60.1481 107.586 60.3386 107.586 60.5714V61.1174C107.586 61.3501 107.646 61.5406 107.764 61.6888C107.883 61.8369 108.061 61.9088 108.299 61.9088C108.49 61.9088 108.638 61.8623 108.748 61.7692C108.858 61.6761 108.948 61.5533 109.015 61.4009L109.503 61.6591C109.401 61.9088 109.249 62.1035 109.045 62.239C108.842 62.3744 108.591 62.4421 108.299 62.4421Z" fill="black"/>
<path d="M112.361 62.37C112.192 62.37 112.064 62.3235 111.971 62.2261C111.878 62.1288 111.827 62.006 111.806 61.8579H111.776C111.717 62.0483 111.611 62.1965 111.454 62.2938C111.297 62.3912 111.106 62.442 110.881 62.442C110.563 62.442 110.317 62.3616 110.148 62.1965C109.978 62.0314 109.893 61.8113 109.893 61.532C109.893 61.2272 110.003 60.9987 110.224 60.8421C110.445 60.6897 110.771 60.6135 111.199 60.6135H111.755V60.3553C111.755 60.1691 111.704 60.021 111.602 59.9194C111.5 59.8178 111.339 59.767 111.127 59.767C110.945 59.767 110.801 59.8051 110.686 59.8855C110.572 59.966 110.474 60.0633 110.398 60.186L110.016 59.839C110.118 59.6654 110.262 59.5258 110.445 59.4115C110.631 59.3014 110.869 59.2422 111.17 59.2422C111.568 59.2422 111.869 59.3353 112.081 59.5173C112.293 59.7035 112.399 59.966 112.399 60.3088V61.8452H112.722V62.37H112.361ZM111.068 61.951C111.267 61.951 111.433 61.9087 111.564 61.8198C111.696 61.7309 111.759 61.6124 111.759 61.4643V61.0241H111.216C110.771 61.0241 110.551 61.1595 110.551 61.4346V61.5404C110.551 61.6759 110.597 61.7817 110.69 61.8494C110.784 61.9171 110.911 61.951 111.072 61.951H111.068Z" fill="black"/>
<path d="M113.354 62.3703V59.3145H113.994V59.9028H114.024C114.066 59.7462 114.155 59.6107 114.295 59.4922C114.431 59.3737 114.622 59.3145 114.868 59.3145H115.037V59.9324H114.783C114.528 59.9324 114.333 59.9747 114.198 60.0551C114.062 60.1356 113.994 60.2583 113.994 60.4191V62.3703H113.354Z" fill="black"/>
<path d="M116.78 62.4421C116.56 62.4421 116.365 62.404 116.191 62.3321C116.017 62.2601 115.873 62.1501 115.75 62.0104C115.627 61.8707 115.533 61.7015 115.47 61.5068C115.406 61.3121 115.372 61.0877 115.372 60.8465C115.372 60.6052 115.406 60.3851 115.47 60.1862C115.533 59.9873 115.627 59.818 115.75 59.6783C115.873 59.5386 116.017 59.4328 116.191 59.3566C116.365 59.2804 116.56 59.2466 116.78 59.2466C117.001 59.2466 117.2 59.2847 117.374 59.3651C117.548 59.4455 117.688 59.5513 117.802 59.691C117.917 59.8307 118.001 59.9915 118.057 60.1777C118.112 60.364 118.141 60.5587 118.141 60.7703V61.0115H116.038V61.1089C116.038 61.3417 116.106 61.5321 116.246 61.6845C116.386 61.8327 116.585 61.9088 116.844 61.9088C117.03 61.9088 117.191 61.8665 117.319 61.7861C117.45 61.7057 117.556 61.5914 117.649 61.4517L118.027 61.8242C117.912 62.0147 117.747 62.1628 117.531 62.2771C117.314 62.3871 117.064 62.4464 116.776 62.4464L116.78 62.4421ZM116.78 59.7418C116.67 59.7418 116.568 59.7629 116.475 59.801C116.382 59.8391 116.305 59.8942 116.237 59.9661C116.174 60.0381 116.123 60.1227 116.089 60.2201C116.055 60.3174 116.034 60.4275 116.034 60.5417V60.5841H117.459V60.5248C117.459 60.2878 117.399 60.1016 117.276 59.9576C117.153 59.8137 116.988 59.7418 116.776 59.7418H116.78Z" fill="black"/>
<path d="M121.521 62.4423C121.173 62.4423 120.881 62.3788 120.639 62.2519C120.397 62.1249 120.19 61.9598 120.016 61.7482L120.474 61.3207C120.618 61.4985 120.779 61.6297 120.953 61.7186C121.127 61.8074 121.326 61.854 121.551 61.854C121.814 61.854 122.013 61.7947 122.145 61.6762C122.276 61.5577 122.344 61.4011 122.344 61.2022C122.344 61.0414 122.297 60.9144 122.204 60.8213C122.111 60.7281 121.941 60.6562 121.704 60.6096L121.339 60.5462C120.94 60.47 120.639 60.3388 120.436 60.1525C120.236 59.9621 120.135 59.7039 120.135 59.378C120.135 59.196 120.168 59.0351 120.236 58.887C120.304 58.7389 120.402 58.6161 120.525 58.5188C120.648 58.4172 120.8 58.341 120.974 58.286C121.152 58.231 121.347 58.2056 121.568 58.2056C121.877 58.2056 122.149 58.2606 122.374 58.3664C122.598 58.4722 122.798 58.6288 122.955 58.832L122.488 59.2425C122.382 59.1071 122.251 58.997 122.098 58.9124C121.945 58.832 121.754 58.7897 121.525 58.7897C121.296 58.7897 121.106 58.8362 120.978 58.9293C120.847 59.0224 120.783 59.1621 120.783 59.3399C120.783 59.5176 120.838 59.6404 120.944 59.725C121.051 59.8097 121.216 59.8732 121.441 59.9155L121.805 59.9917C122.217 60.0721 122.518 60.2033 122.709 60.3895C122.899 60.5758 122.993 60.834 122.993 61.1641C122.993 61.3546 122.959 61.5323 122.891 61.6889C122.823 61.8455 122.726 61.981 122.598 62.091C122.471 62.2011 122.314 62.2899 122.132 62.3492C121.945 62.4085 121.738 62.4423 121.5 62.4423H121.521Z" fill="black"/>
<path d="M123.765 62.37V59.3141H124.405V59.8178H124.435C124.464 59.7374 124.502 59.6654 124.549 59.5935C124.596 59.5215 124.651 59.4623 124.714 59.4073C124.778 59.3565 124.854 59.3141 124.943 59.2845C125.033 59.2549 125.134 59.2422 125.253 59.2422C125.461 59.2422 125.647 59.293 125.809 59.3946C125.97 59.4961 126.088 59.6527 126.161 59.8644H126.178C126.233 59.6908 126.339 59.5469 126.496 59.4242C126.652 59.3014 126.856 59.2422 127.102 59.2422C127.407 59.2422 127.645 59.3438 127.814 59.5512C127.984 59.7586 128.069 60.0506 128.069 60.4315V62.37H127.429V60.5077C127.429 60.2707 127.382 60.0929 127.293 59.9744C127.204 59.8559 127.06 59.7966 126.865 59.7966C126.784 59.7966 126.703 59.8093 126.627 59.8305C126.551 59.8517 126.487 59.8855 126.432 59.9279C126.377 59.9702 126.33 60.0252 126.292 60.0929C126.258 60.1606 126.237 60.2368 126.237 60.3215V62.3743H125.597V60.5119C125.597 60.0379 125.41 59.8009 125.037 59.8009C124.956 59.8009 124.88 59.8136 124.804 59.8347C124.727 59.8559 124.659 59.8898 124.6 59.9321C124.541 59.9744 124.494 60.0294 124.46 60.0972C124.426 60.1649 124.405 60.2411 124.405 60.3257V62.3785H123.765V62.37Z" fill="black"/>
<path d="M131.203 62.37C131.033 62.37 130.906 62.3235 130.813 62.2261C130.719 62.1288 130.668 62.006 130.647 61.8579H130.618C130.558 62.0483 130.452 62.1965 130.295 62.2938C130.138 62.3912 129.948 62.442 129.723 62.442C129.405 62.442 129.159 62.3616 128.989 62.1965C128.819 62.0314 128.735 61.8113 128.735 61.532C128.735 61.2272 128.845 60.9987 129.065 60.8421C129.286 60.6897 129.613 60.6135 130.041 60.6135H130.596V60.3553C130.596 60.1691 130.545 60.021 130.444 59.9194C130.342 59.8178 130.181 59.767 129.969 59.767C129.786 59.767 129.642 59.8051 129.528 59.8855C129.413 59.966 129.316 60.0633 129.239 60.186L128.858 59.839C128.959 59.6654 129.104 59.5258 129.286 59.4115C129.473 59.3014 129.71 59.2422 130.011 59.2422C130.41 59.2422 130.711 59.3353 130.923 59.5173C131.135 59.7035 131.241 59.966 131.241 60.3088V61.8452H131.563V62.37H131.203ZM129.905 61.951C130.104 61.951 130.27 61.9087 130.401 61.8198C130.533 61.7309 130.596 61.6124 130.596 61.4643V61.0241H130.054C129.608 61.0241 129.388 61.1595 129.388 61.4346V61.5404C129.388 61.6759 129.434 61.7817 129.528 61.8494C129.621 61.9171 129.748 61.951 129.909 61.951H129.905Z" fill="black"/>
<path d="M132.191 62.3703V59.3145H132.831V59.9028H132.861C132.903 59.7462 132.992 59.6107 133.132 59.4922C133.268 59.3737 133.459 59.3145 133.705 59.3145H133.874V59.9324H133.62C133.366 59.9324 133.17 59.9747 133.035 60.0551C132.899 60.1356 132.831 60.2583 132.831 60.4191V62.3703H132.191Z" fill="black"/>
<path d="M135.32 62.3705C135.096 62.3705 134.926 62.3112 134.816 62.1969C134.701 62.0827 134.646 61.9176 134.646 61.706V59.8352H134.167V59.3104H134.426C134.532 59.3104 134.604 59.285 134.646 59.2384C134.689 59.1919 134.71 59.1157 134.71 59.0099V58.4766H135.287V59.3104H135.927V59.8352H135.287V61.8456H135.88V62.3705H135.32Z" fill="black"/>
<path d="M137.797 62.4421C137.577 62.4421 137.381 62.404 137.208 62.3321C137.034 62.2601 136.89 62.1501 136.767 62.0104C136.644 61.8707 136.55 61.7015 136.487 61.5068C136.423 61.3121 136.389 61.0877 136.389 60.8465C136.389 60.6052 136.423 60.3851 136.487 60.1862C136.55 59.9873 136.644 59.818 136.767 59.6783C136.89 59.5386 137.034 59.4328 137.208 59.3566C137.381 59.2804 137.577 59.2466 137.797 59.2466C138.018 59.2466 138.217 59.2847 138.391 59.3651C138.565 59.4455 138.705 59.5513 138.819 59.691C138.934 59.8307 139.018 59.9915 139.074 60.1777C139.129 60.364 139.158 60.5587 139.158 60.7703V61.0115H137.055V61.1089C137.055 61.3417 137.123 61.5321 137.263 61.6845C137.403 61.8327 137.602 61.9088 137.861 61.9088C138.047 61.9088 138.208 61.8665 138.336 61.7861C138.467 61.7057 138.573 61.5914 138.666 61.4517L139.044 61.8242C138.929 62.0147 138.764 62.1628 138.548 62.2771C138.331 62.3871 138.081 62.4464 137.793 62.4464L137.797 62.4421ZM137.797 59.7418C137.687 59.7418 137.585 59.7629 137.492 59.801C137.398 59.8391 137.322 59.8942 137.254 59.9661C137.191 60.0381 137.14 60.1227 137.106 60.2201C137.072 60.3174 137.051 60.4275 137.051 60.5417V60.5841H138.476V60.5248C138.476 60.2878 138.416 60.1016 138.293 59.9576C138.17 59.8137 138.005 59.7418 137.793 59.7418H137.797Z" fill="black"/>
<path d="M139.871 62.3703V59.3145H140.511V59.9028H140.541C140.583 59.7462 140.672 59.6107 140.812 59.4922C140.948 59.3737 141.139 59.3145 141.385 59.3145H141.554V59.9324H141.3C141.045 59.9324 140.85 59.9747 140.715 60.0551C140.579 60.1356 140.511 60.2583 140.511 60.4191V62.3703H139.871Z" fill="black"/>
<defs>
<linearGradient id="paint0_linear_1093_2276" x1="3.34128" y1="52.4029" x2="142.5" y2="52.4029" gradientUnits="userSpaceOnUse">
<stop stop-color="#41AF4B"/>
<stop offset="1" stop-color="#439ECF"/>
</linearGradient>
<linearGradient id="paint1_linear_1093_2276" x1="3.34128" y1="60.9608" x2="142.5" y2="60.9608" gradientUnits="userSpaceOnUse">
<stop stop-color="#41AF4B"/>
<stop offset="1" stop-color="#439ECF"/>
</linearGradient>
<linearGradient id="paint2_linear_1093_2276" x1="3.34128" y1="60.9608" x2="142.5" y2="60.9608" gradientUnits="userSpaceOnUse">
<stop stop-color="#41AF4B"/>
<stop offset="1" stop-color="#439ECF"/>
</linearGradient>
<linearGradient id="paint3_linear_1093_2276" x1="3.34128" y1="29.3018" x2="142.5" y2="29.3018" gradientUnits="userSpaceOnUse">
<stop stop-color="#41AF4B"/>
<stop offset="1" stop-color="#439ECF"/>
</linearGradient>
<linearGradient id="paint4_linear_1093_2276" x1="3.34128" y1="8.49029" x2="142.5" y2="8.49029" gradientUnits="userSpaceOnUse">
<stop stop-color="#41AF4B"/>
<stop offset="1" stop-color="#439ECF"/>
</linearGradient>
<linearGradient id="paint5_linear_1093_2276" x1="3.34124" y1="35.9931" x2="142.5" y2="35.9931" gradientUnits="userSpaceOnUse">
<stop stop-color="#41AF4B"/>
<stop offset="1" stop-color="#439ECF"/>
</linearGradient>
<linearGradient id="paint6_linear_1093_2276" x1="3.34128" y1="28.963" x2="127.454" y2="28.963" gradientUnits="userSpaceOnUse">
<stop stop-color="#41AF4B"/>
<stop offset="1" stop-color="#439ECF"/>
</linearGradient>
<linearGradient id="paint7_linear_1093_2276" x1="3.3412" y1="8.49029" x2="142.5" y2="8.49029" gradientUnits="userSpaceOnUse">
<stop stop-color="#41AF4B"/>
<stop offset="1" stop-color="#439ECF"/>
</linearGradient>
<linearGradient id="paint8_linear_1093_2276" x1="3.34127" y1="35.9933" x2="142.5" y2="35.9933" gradientUnits="userSpaceOnUse">
<stop stop-color="#41AF4B"/>
<stop offset="1" stop-color="#439ECF"/>
</linearGradient>
<linearGradient id="paint9_linear_1093_2276" x1="3.34128" y1="60.9608" x2="142.5" y2="60.9608" gradientUnits="userSpaceOnUse">
<stop stop-color="#41AF4B"/>
<stop offset="1" stop-color="#439ECF"/>
</linearGradient>
<linearGradient id="paint10_linear_1093_2276" x1="3.34128" y1="60.9608" x2="142.5" y2="60.9608" gradientUnits="userSpaceOnUse">
<stop stop-color="#41AF4B"/>
<stop offset="1" stop-color="#439ECF"/>
</linearGradient>
</defs>
</svg>
