<svg width="32" height="32" viewBox="0 0 32 32" fill="none" xmlns="http://www.w3.org/2000/svg">
<path d="M11.3204 13.2959C11.4329 13.2959 11.5193 13.2051 11.5193 13.097C11.5193 10.6278 13.5302 8.61701 15.9994 8.61701C18.4685 8.61701 20.475 10.6278 20.475 13.097C20.475 13.2094 20.5658 13.2959 20.6739 13.2959C20.7864 13.2959 20.8729 13.2051 20.8729 13.097C20.8729 10.4073 18.6848 8.21484 15.9994 8.21484C13.3096 8.21484 11.1172 10.403 11.1172 13.097C11.1215 13.2051 11.2123 13.2959 11.3204 13.2959Z" fill="#02A09B"/>
<path d="M28.3283 24.6133C27.7056 23.7571 24.977 22.996 24.2505 22.8057V22.4166C24.8213 21.889 25.2883 21.102 25.5478 20.3149V20.2976C25.5521 20.289 25.5565 20.2847 25.5565 20.276L25.6213 19.7787C25.6646 19.4328 25.7078 19.0911 25.7424 18.7668C25.79 18.7495 25.8332 18.7236 25.8592 18.6803C26.3262 17.8544 26.6808 16.9895 26.9229 16.1074C26.9965 15.8479 26.8581 15.5625 26.6159 15.4544C25.6775 15.0479 25.0721 14.1182 25.0721 13.089C25.0721 12.0728 25.6775 11.143 26.6202 10.7279C26.8581 10.6198 26.9965 10.3344 26.9229 10.0749C26.6851 9.18844 26.3262 8.3279 25.8592 7.50628C25.7208 7.26412 25.4181 7.16466 25.15 7.27277C24.1986 7.63169 23.1262 7.4025 22.4127 6.68466C21.6948 5.97115 21.4656 4.89439 21.8246 3.95169C21.9327 3.67493 21.8332 3.37655 21.5867 3.23817C20.7651 2.77547 19.9002 2.42088 19.0181 2.17871C18.7586 2.10953 18.4732 2.24358 18.3694 2.48574C17.9586 3.42412 17.0332 4.0252 16.0083 4.0252C14.9792 4.0252 14.0537 3.42412 13.6429 2.47709C13.5219 2.23925 13.2537 2.10953 12.9856 2.17871C12.1035 2.42088 11.2429 2.77547 10.4127 3.23817C10.1705 3.37655 10.071 3.67925 10.1792 3.94736C10.5381 4.89871 10.3089 5.97115 9.59105 6.68466C8.87753 7.39817 7.79645 7.63169 6.85807 7.27277C6.58132 7.16466 6.28294 7.26412 6.14456 7.51061C5.67753 8.32358 5.32294 9.18844 5.08078 10.0749C5.01159 10.3344 5.14564 10.6198 5.3878 10.7279C6.33051 11.143 6.93591 12.0684 6.93591 13.089C6.93591 14.1182 6.33051 15.0479 5.3878 15.4544C5.14564 15.5625 5.01159 15.8479 5.08078 16.1074C5.31861 16.9895 5.67753 17.8501 6.14456 18.6803C6.17483 18.7322 6.22672 18.7625 6.28294 18.7755C6.33483 19.2382 6.40834 19.6966 6.50348 20.1506C6.5078 20.1722 6.51645 20.1852 6.52943 20.2068C6.52943 20.2155 6.52942 20.2284 6.53375 20.2328C6.78888 21.0284 7.21699 21.8198 7.75321 22.3603V22.8014C7.59753 22.8403 7.32078 22.9182 6.99213 23.0176H6.9878C6.96186 23.022 6.93159 23.0306 6.90997 23.0436C5.81159 23.3809 4.14672 23.969 3.67537 24.609C2.80186 25.8155 3.06997 29.4911 3.07861 29.6468C3.08294 29.7593 3.1651 29.8371 3.26888 29.8371H5.40943H5.41375H12.8689H12.8732C12.8732 29.8371 12.8732 29.8371 12.8775 29.8371H14.9878C15.0959 29.8371 15.1781 29.7593 15.1867 29.6555C15.1954 29.5474 15.3165 27.8609 15.1348 26.3949H16.8646C16.6829 27.8609 16.7997 29.5474 16.8083 29.6555C16.817 29.7593 16.9078 29.8371 17.0116 29.8371H19.1478H19.1521C19.1521 29.8371 19.1521 29.8371 19.1565 29.8371H26.6116H26.6159H28.7305C28.8343 29.8371 28.9208 29.7593 28.9294 29.6555C28.9381 29.4998 29.2105 25.8198 28.3283 24.6133ZM24.7738 23.3679C24.644 24.2717 24.3067 25.0111 23.8137 25.4868L23.1694 24.7863C23.8181 24.3106 24.0473 23.7528 24.1943 23.2036C24.3629 23.2511 24.5575 23.3074 24.7738 23.3679ZM21.8808 22.9139C21.8808 22.9095 21.8851 22.9009 21.8851 22.8966V22.7063C22.1921 22.9182 22.5251 23.0436 22.871 23.0436C23.2083 23.0436 23.5413 22.9225 23.8527 22.7236V22.8966C23.8527 22.9052 23.857 22.9095 23.857 22.9182C23.6927 23.6057 23.4678 24.0901 22.871 24.5052C22.2656 24.0944 22.0451 23.6057 21.8808 22.9139ZM22.5683 24.7863L21.924 25.4868C21.284 24.8771 21.0505 23.9647 20.964 23.3679C21.1975 23.2987 21.3965 23.2425 21.5478 23.2036C21.6905 23.7571 21.924 24.3106 22.5683 24.7863ZM23.9521 22.1528C23.9305 22.1701 23.9132 22.183 23.8959 22.2047C23.5759 22.4771 23.2256 22.6457 22.871 22.6457C21.9889 22.6457 21.1889 21.5474 20.7608 20.4317C20.8213 20.3971 20.8602 20.3322 20.8602 20.2587C20.8602 20.2587 20.8602 20.2544 20.8602 20.2501C20.8343 19.4587 20.8429 18.5938 21.1413 18.0403C22.3089 18.4598 23.4159 18.3257 24.4321 17.6425C24.4451 18.0101 24.5359 18.2911 24.7132 18.503C24.7435 18.542 24.7694 18.5982 24.7521 18.6371C24.5921 19.0176 24.6743 19.5279 24.7521 20.0166L24.791 20.2803C24.8083 20.3755 24.8905 20.4533 24.99 20.4533H25.0765C24.8213 21.0976 24.4192 21.7333 23.9521 22.1528ZM25.2235 19.7311L25.1802 20.0598H25.1543L25.137 19.9647C25.0635 19.5236 24.9943 19.0695 25.111 18.7971C25.1846 18.6241 25.1456 18.4209 25.0116 18.2566C24.8429 18.0533 24.7867 17.7247 24.8386 17.2576C24.8473 17.1755 24.8083 17.0976 24.7348 17.0587C24.6613 17.0198 24.5748 17.0328 24.51 17.0803C23.4678 17.9322 22.3565 18.1052 21.124 17.6209C21.0419 17.5863 20.9424 17.6166 20.8905 17.6901C20.6138 18.0793 20.5013 18.6198 20.4624 19.1906C20.3975 18.7798 20.3543 18.3647 20.3327 17.9495C20.2548 16.7257 20.9683 15.5971 22.0235 15.2771C22.084 15.2598 22.1446 15.2468 22.2051 15.2295C23.511 14.9441 24.484 15.4111 24.9381 16.5614C24.964 16.622 25.0116 16.6652 25.0678 16.6825C25.5954 16.8209 25.3878 18.4338 25.2235 19.7311ZM6.20078 17.9322C5.88942 17.3052 5.64294 16.6609 5.46564 16.0079C5.44402 15.9344 5.48726 15.8522 5.54348 15.8263C6.62888 15.3549 7.33375 14.2825 7.33375 13.0933C7.33375 11.9171 6.63321 10.8447 5.54348 10.3647C5.48294 10.3387 5.44402 10.2522 5.46564 10.183C5.69915 9.33115 6.04078 8.49655 6.48618 7.71385C6.53375 7.63601 6.63321 7.62304 6.71537 7.65331C7.80942 8.06412 9.05051 7.80034 9.87645 6.97439C10.7024 6.14844 10.9662 4.90736 10.551 3.80898C10.5165 3.7225 10.5424 3.62736 10.6116 3.58844C11.4073 3.14304 12.2419 2.80142 13.0808 2.57223C13.1586 2.54628 13.2451 2.58953 13.2754 2.65007C13.7424 3.73115 14.8105 4.43169 16.004 4.43169C17.1802 4.43169 18.257 3.73115 18.7327 2.65007C18.7586 2.5852 18.8408 2.55061 18.9143 2.57223C19.7619 2.80142 20.5921 3.14304 21.3835 3.58844C21.4613 3.63169 21.4743 3.73547 21.4483 3.81331C21.0289 4.90736 21.297 6.14844 22.1229 6.97439C22.9489 7.80034 24.19 8.06844 25.2883 7.64898C25.3619 7.62304 25.4656 7.63169 25.5089 7.71385C25.9543 8.50088 26.3046 9.33547 26.5338 10.183C26.5554 10.2566 26.5121 10.343 26.4559 10.3647C25.3662 10.8447 24.6656 11.9128 24.6656 13.0933C24.6656 14.2825 25.3662 15.3549 26.4516 15.8263C26.5165 15.8522 26.5554 15.9387 26.5338 16.0079C26.3521 16.6566 26.11 17.3009 25.8029 17.9279C25.8289 17.1322 25.7165 16.5225 25.2797 16.3279C24.7348 15.0566 23.5889 14.5117 22.1229 14.8403C22.0494 14.8576 21.9802 14.8706 21.911 14.8966C20.6786 15.2684 19.8483 16.5614 19.9348 17.9755C19.9824 18.7063 20.0819 19.4414 20.2332 20.1593C20.2375 20.1809 20.2505 20.1938 20.2592 20.2155V20.2414C20.2765 20.289 20.2894 20.3322 20.3067 20.3798C19.2473 19.8825 17.8375 19.4847 17.3748 19.3636V18.9744C17.9456 18.4468 18.4127 17.6555 18.6721 16.8728C18.6721 16.8641 18.6721 16.8555 18.6765 16.8468C18.6765 16.8425 18.6808 16.8425 18.6808 16.8338L18.7456 16.3366C18.9489 14.7322 19.1435 13.2101 18.4083 12.8814C17.8635 11.6101 16.7175 11.0652 15.2516 11.3938C15.1781 11.4111 15.1089 11.4241 15.0397 11.4457C13.8073 11.822 12.977 13.1149 13.0635 14.5247C13.1067 15.2555 13.2105 15.9906 13.3619 16.7084C13.3705 16.7344 13.3792 16.756 13.3878 16.7776V16.7993C13.6473 17.5906 14.0754 18.3863 14.6073 18.9268V19.3679C14.4473 19.4111 14.1792 19.4847 13.8505 19.5841C13.8462 19.5841 13.8419 19.5798 13.8375 19.5841C13.8116 19.5841 13.7813 19.5971 13.7597 19.6101C13.1759 19.7917 12.4365 20.0382 11.8051 20.3236V20.3193C11.8094 20.3149 11.8051 20.3063 11.8094 20.302C11.8094 20.2933 11.8137 20.289 11.8137 20.2803L11.8786 19.7787C12.0862 18.1744 12.2808 16.6522 11.5413 16.3236C10.9965 15.0522 9.85051 14.5074 8.38024 14.836C8.30672 14.8533 8.24186 14.8663 8.16834 14.8922C6.94888 15.2598 6.12726 16.5355 6.20078 17.9322ZM18.1446 14.8101C17.9802 14.6068 17.9197 14.2695 17.9716 13.8068C17.9802 13.729 17.9413 13.6511 17.8678 13.6122C17.8375 13.5949 17.8029 13.5863 17.7727 13.5863C17.7294 13.5863 17.6819 13.6036 17.6429 13.6295C16.6008 14.4814 15.4937 14.6544 14.257 14.1701C14.1748 14.1355 14.0754 14.1614 14.0235 14.2393C13.8289 14.516 13.6775 15.0393 13.5651 15.5236C13.5219 15.1863 13.4873 14.8403 13.4656 14.4987C13.3878 13.2706 14.1013 12.1463 15.1565 11.8263C15.2213 11.809 15.2819 11.796 15.3381 11.7787C16.6483 11.489 17.6213 11.9603 18.0754 13.1106C18.1013 13.1711 18.1489 13.2144 18.2051 13.2317C18.6981 13.3657 18.5381 14.8144 18.3824 16.0641C18.2613 15.7398 18.2008 15.4544 18.244 15.3463C18.3132 15.1776 18.2786 14.9701 18.1446 14.8101ZM14.27 14.6025C15.4375 15.0133 16.5402 14.8793 17.5565 14.2003C17.5694 14.5636 17.6602 14.849 17.8375 15.0609C17.8678 15.0998 17.8937 15.156 17.8765 15.1906C17.7035 15.6014 18.097 16.4663 18.27 16.8252C18.0278 17.5257 17.5954 18.2479 17.0808 18.7063C17.0592 18.7193 17.0419 18.7366 17.0246 18.7582C16.7002 19.0306 16.3543 19.1993 15.9997 19.1993C15.0354 19.1993 14.1705 17.8847 13.777 16.6695C13.7727 16.6652 13.7683 16.6609 13.764 16.6522C13.8289 16.1982 14.0235 15.1041 14.27 14.6025ZM15.697 21.3398L15.0527 22.0403C14.4127 21.4306 14.1792 20.5182 14.0927 19.9257C14.3348 19.8522 14.5381 19.796 14.6765 19.7571C14.8192 20.3106 15.0527 20.8684 15.697 21.3398ZM15.0094 19.4674C15.0094 19.4587 15.0138 19.4544 15.0138 19.4501V19.2598C15.3208 19.4717 15.6537 19.5971 15.9997 19.5971C16.337 19.5971 16.67 19.476 16.9813 19.2771V19.4501C16.9813 19.4544 16.9856 19.463 16.9856 19.4717C16.8213 20.1593 16.5965 20.6436 15.9997 21.0587C15.3986 20.6479 15.1737 20.1549 15.0094 19.4674ZM17.3273 19.7614C17.4613 19.796 17.6646 19.8522 17.9067 19.9257C17.777 20.8295 17.4397 21.569 16.9424 22.0447L16.2981 21.3441C16.9467 20.8684 17.1759 20.3063 17.3273 19.7614ZM6.59429 17.9452C6.51645 16.7214 7.22997 15.5928 8.2851 15.2728C8.34564 15.2555 8.40618 15.2425 8.46672 15.2252C9.77699 14.9398 10.7456 15.4068 11.1997 16.5571C11.2256 16.6176 11.2775 16.6609 11.3337 16.6782C11.8483 16.8209 11.6451 18.4338 11.4765 19.7311L11.4375 20.0598H11.4159L11.3986 19.9603C11.3294 19.5193 11.2602 19.0695 11.3727 18.7928C11.4462 18.6198 11.4029 18.4122 11.2732 18.2522C11.1046 18.049 11.044 17.7117 11.0959 17.2533C11.1046 17.1711 11.0656 17.0933 10.9921 17.0544C10.9229 17.0155 10.8321 17.0284 10.7716 17.076C9.7251 17.9279 8.61807 18.1009 7.38132 17.6166C7.29915 17.582 7.1997 17.6122 7.1478 17.6857C6.87537 18.0749 6.75861 18.6155 6.7197 19.1863C6.6678 18.7755 6.62024 18.3603 6.59429 17.9452ZM7.01807 20.4317C7.08294 20.3971 7.12186 20.3236 7.12186 20.2501C7.09159 19.4587 7.10024 18.5938 7.40294 18.0403C8.57051 18.4598 9.67321 18.3257 10.6894 17.6425C10.7024 18.0101 10.7932 18.2911 10.9748 18.503C11.0051 18.542 11.031 18.5982 11.0137 18.6328C10.8537 19.0133 10.9359 19.5236 11.0094 20.0166L11.0527 20.2803C11.0656 20.3755 11.1478 20.4533 11.2473 20.4533H11.3337C11.0829 21.0976 10.6851 21.729 10.2137 22.1484C10.1921 22.1614 10.1748 22.1744 10.1619 22.196C9.83753 22.4684 9.48726 22.6371 9.13267 22.6371C8.25051 22.6457 7.45051 21.5474 7.01807 20.4317ZM10.1143 22.9182C9.94997 23.6057 9.7251 24.0901 9.12834 24.5052C8.53159 24.0901 8.30672 23.6014 8.1424 22.9139V22.7063C8.44943 22.9182 8.7824 23.0436 9.12834 23.0436C9.46997 23.0436 9.80294 22.9225 10.11 22.7236V22.8966C10.11 22.9052 10.1143 22.9095 10.1143 22.9182ZM10.4559 23.2079C10.6246 23.2511 10.8235 23.3074 11.0397 23.3722C10.91 24.276 10.5727 25.0155 10.0754 25.4911L9.43537 24.7906C10.0754 24.3106 10.3089 23.7528 10.4559 23.2079ZM7.8051 23.2079C7.95213 23.7571 8.18564 24.3149 8.82564 24.7906L8.18564 25.4911C7.54564 24.8814 7.3078 23.969 7.22132 23.3722C7.45483 23.303 7.65807 23.2468 7.8051 23.2079ZM14.8019 29.4393H13.0678L13.0592 27.636C13.0548 27.5279 12.9683 27.4414 12.8602 27.4414C12.8559 27.4414 12.8559 27.4414 12.8559 27.4414C12.7478 27.4414 12.657 27.5279 12.6613 27.6403L12.67 29.4393H5.60834L5.59969 27.636C5.59969 27.5279 5.50888 27.4414 5.40078 27.4414H5.39645C5.28834 27.4414 5.20186 27.5279 5.20186 27.6403L5.21051 29.4393H3.45483C3.41591 28.6825 3.30348 25.7982 3.99105 24.8511C4.35429 24.3582 5.77699 23.8263 6.83645 23.489C7.0051 24.5484 7.43753 25.4047 8.07321 25.9236C8.1078 25.9495 8.15105 25.9668 8.19861 25.9668C8.25483 25.9668 8.30672 25.9452 8.34564 25.902L9.12834 25.0457L9.91105 25.902C9.94997 25.9452 10.0019 25.9668 10.0581 25.9668C10.1013 25.9668 10.1446 25.9495 10.1835 25.9236C10.8235 25.4047 11.2516 24.5441 11.4202 23.489C12.5359 23.8349 13.911 24.3625 14.2656 24.8511C14.4819 25.1495 14.6202 25.6382 14.7067 26.1917C14.8062 26.8403 14.8365 27.5841 14.8365 28.2111C14.8321 28.7474 14.8148 29.1971 14.8019 29.4393ZM16.9251 25.9928H15.0743C14.9748 25.4349 14.8235 24.9376 14.59 24.6176C13.9629 23.7614 11.2386 23.0003 10.5121 22.8101V22.4209C10.9575 22.0101 11.3424 21.4436 11.6105 20.8382C11.6365 20.8382 11.6667 20.8338 11.6927 20.8166C12.2981 20.5138 13.0721 20.2414 13.7078 20.0425C13.8765 21.102 14.3046 21.9582 14.9402 22.4771C14.9792 22.503 15.0224 22.5203 15.07 22.5203C15.1219 22.5203 15.1781 22.4944 15.217 22.4555L15.9997 21.5993L16.7781 22.4555C16.817 22.4944 16.8732 22.5203 16.9251 22.5203C16.9683 22.5203 17.0116 22.503 17.0548 22.4771C17.6905 21.9582 18.1229 21.0976 18.2916 20.0425C18.9186 20.2371 19.6883 20.5095 20.2894 20.8079C20.3154 20.8209 20.35 20.8295 20.3759 20.8295C20.4105 20.8295 20.4494 20.8166 20.4754 20.8036C20.7305 21.4003 21.0765 21.9582 21.4873 22.369V22.8101C21.3273 22.849 21.0548 22.9268 20.7262 23.0263C20.7219 23.0263 20.7219 23.0263 20.7175 23.0263C20.6916 23.0306 20.6656 23.0393 20.6397 23.0522C19.5456 23.3895 17.8808 23.9776 17.4094 24.6176C17.1716 24.9376 17.0246 25.4349 16.9251 25.9928ZM28.5402 29.4393H26.8062L26.7975 27.636C26.7975 27.5279 26.711 27.4414 26.5986 27.4414C26.4862 27.4414 26.3997 27.5279 26.3997 27.6403L26.4083 29.4393H19.351L19.3381 27.636C19.3381 27.5279 19.2516 27.4414 19.1392 27.4414C19.0267 27.4414 18.9402 27.5279 18.9402 27.6403L18.9532 29.4393H17.2019C17.1586 28.6825 17.0462 25.7982 17.7337 24.8511C18.1013 24.3582 19.524 23.8263 20.5835 23.489C20.7521 24.5484 21.1802 25.4047 21.8159 25.9236C21.8548 25.9495 21.8981 25.9668 21.9456 25.9668C22.0019 25.9668 22.0537 25.9452 22.0927 25.902L22.8754 25.0457L23.6537 25.902C23.6927 25.9452 23.7489 25.9668 23.8008 25.9668C23.844 25.9668 23.8916 25.9495 23.9305 25.9236C24.5705 25.4047 24.9986 24.5441 25.1673 23.489C26.2786 23.8349 27.6537 24.3625 28.0127 24.8511C28.6959 25.7982 28.5835 28.6782 28.5402 29.4393Z" fill="#02A09B"/>
<path d="M8.826 24.7858L8.186 25.4864C7.546 24.8766 7.30817 23.9642 7.22168 23.3674C7.45519 23.2983 7.65844 23.242 7.80546 23.2031C7.95249 23.7566 8.18168 24.3102 8.826 24.7858Z" fill="#02A09B"/>
<path d="M11.035 23.3674C10.9053 24.2712 10.568 25.0107 10.0707 25.4864L9.43066 24.7858C10.075 24.3102 10.3085 23.7523 10.4512 23.2031C10.6199 23.2507 10.8231 23.3069 11.035 23.3674Z" fill="#02A09B"/>
<path d="M24.7733 23.3674C24.6435 24.2712 24.3062 25.0107 23.8133 25.4864L23.1689 24.7858C23.8176 24.3102 24.0468 23.7523 24.1938 23.2031C24.3625 23.2507 24.5571 23.3069 24.7733 23.3674Z" fill="#02A09B"/>
<path d="M22.5682 24.7858L21.9239 25.4864C21.2839 24.8766 21.0504 23.9642 20.9639 23.3674C21.1974 23.2983 21.3963 23.242 21.5477 23.2031C21.6904 23.7566 21.9239 24.3102 22.5682 24.7858Z" fill="#02A09B"/>
<path d="M21.4829 22.3695V22.8105C21.3229 22.8495 21.0505 22.9273 20.7219 23.0268C20.7175 23.0268 20.7175 23.0268 20.7132 23.0268C20.6873 23.0311 20.6613 23.0397 20.6354 23.0527C19.5413 23.39 17.8765 23.9781 17.4051 24.6181C17.1716 24.9424 17.0202 25.4354 16.9208 25.9932H15.07C14.9705 25.4354 14.8192 24.9381 14.5857 24.6181C13.9586 23.7619 11.2343 23.0008 10.5078 22.8105V22.4213C10.9532 22.0105 11.3381 21.444 11.6062 20.8386C11.6321 20.8386 11.6624 20.8343 11.6884 20.817C12.2938 20.5143 13.0678 20.2419 13.7035 20.043C13.8721 21.1024 14.3002 21.9586 14.9359 22.4776C14.9748 22.5035 15.0181 22.5208 15.0657 22.5208C15.1175 22.5208 15.1738 22.4949 15.2127 22.4559L15.9997 21.5997L16.7781 22.4559C16.817 22.4949 16.8732 22.5208 16.9251 22.5208C16.9684 22.5208 17.0116 22.5035 17.0548 22.4776C17.6905 21.9586 18.1229 21.0981 18.2916 20.043C18.9186 20.2376 19.6884 20.51 20.2894 20.8084C20.3154 20.8213 20.35 20.83 20.3759 20.83C20.4105 20.83 20.4494 20.817 20.4754 20.8041C20.7305 21.3965 21.0765 21.9586 21.4829 22.3695Z" fill="#02A09B"/>
<path d="M11.4849 19.7302L11.446 20.0588H11.4157L11.3984 19.9594C11.3292 19.5183 11.2601 19.0686 11.3725 18.7918C11.446 18.6188 11.4028 18.4113 11.273 18.2513C11.1044 18.048 11.0438 17.7107 11.0957 17.2524C11.1044 17.1702 11.0655 17.0924 10.9919 17.0534C10.9228 17.0145 10.8319 17.0275 10.7714 17.0751C9.72492 17.927 8.61789 18.0999 7.38113 17.6156C7.29897 17.581 7.19951 17.6113 7.14762 17.6848C6.87519 18.074 6.75843 18.6145 6.71951 19.1853C6.65897 18.7745 6.61573 18.3594 6.58978 17.9442C6.51194 16.7205 7.22546 15.5918 8.28059 15.2718C8.34113 15.2545 8.40167 15.2415 8.46221 15.2242C9.77248 14.9388 10.7411 15.4059 11.1952 16.5561C11.2211 16.6167 11.273 16.6599 11.3292 16.6772C11.8568 16.8199 11.6536 18.4329 11.4849 19.7302Z" fill="#02A09B"/>
<path d="M25.2238 19.7317L25.1805 20.0604H25.1546L25.1373 19.9652C25.0638 19.5242 24.9946 19.0701 25.1113 18.7977C25.1848 18.6247 25.1459 18.4215 25.0119 18.2571C24.8432 18.0539 24.787 17.7252 24.8389 17.2582C24.8475 17.1761 24.8086 17.0982 24.7351 17.0593C24.6616 17.0204 24.5751 17.0334 24.5102 17.0809C23.4681 17.9328 22.3567 18.1058 21.1243 17.6215C21.0421 17.5869 20.9427 17.6171 20.8908 17.6906C20.614 18.0798 20.5016 18.6204 20.4627 19.1912C20.3978 18.7804 20.3546 18.3652 20.3329 17.9501C20.2551 16.7263 20.9686 15.5977 22.0238 15.2777C22.0843 15.2604 22.1448 15.2474 22.2054 15.2301C23.5113 14.9447 24.4843 15.4117 24.9384 16.562C24.9643 16.6225 25.0119 16.6658 25.0681 16.6831C25.5956 16.8215 25.3881 18.4344 25.2238 19.7317Z" fill="#02A09B"/>
<path d="M18.3825 16.0683C18.2614 15.744 18.2009 15.4586 18.2441 15.3505C18.3176 15.1775 18.2787 14.97 18.1447 14.81C17.9804 14.6067 17.9198 14.2694 17.9717 13.8067C17.9804 13.7289 17.9414 13.651 17.8679 13.6121C17.8376 13.5948 17.8031 13.5862 17.7728 13.5862C17.7295 13.5862 17.682 13.6035 17.6431 13.6294C16.6009 14.4813 15.4939 14.6543 14.2571 14.17C14.1749 14.1354 14.0755 14.1613 14.0236 14.2391C13.829 14.5159 13.6777 15.0391 13.5652 15.5235C13.522 15.1862 13.4874 14.8402 13.4658 14.4986C13.3879 13.2705 14.1014 12.1462 15.1566 11.8262C15.2214 11.8089 15.282 11.7959 15.3382 11.7786C16.6485 11.4889 17.6214 11.9602 18.0755 13.1105C18.1014 13.171 18.149 13.2143 18.2052 13.2316C18.6982 13.37 18.5382 14.8143 18.3825 16.0683Z" fill="#02A09B"/>
</svg>
