<svg width="46" height="47" viewBox="0 0 46 47" fill="none" xmlns="http://www.w3.org/2000/svg">
<rect y="0.5" width="46" height="46" rx="23" fill="#FF92AE"/>
<mask id="mask0_1973_1156" style="mask-type:alpha" maskUnits="userSpaceOnUse" x="14" y="14" width="18" height="19">
<path fill-rule="evenodd" clip-rule="evenodd" d="M29.75 17.875H16.25C15.6287 17.875 15.125 18.3787 15.125 19V28C15.125 28.6213 15.6287 29.125 16.25 29.125H29.75C30.3713 29.125 30.875 28.6213 30.875 28V19C30.875 18.3787 30.3713 17.875 29.75 17.875ZM16.25 16.75C15.0074 16.75 14 17.7574 14 19V28C14 29.2426 15.0074 30.25 16.25 30.25H29.75C30.9926 30.25 32 29.2426 32 28V19C32 17.7574 30.9926 16.75 29.75 16.75H16.25Z" fill="black"/>
<path d="M16.25 20.6875C16.25 20.3768 16.5018 20.125 16.8125 20.125H19.0625C19.3732 20.125 19.625 20.3768 19.625 20.6875V21.8125C19.625 22.1232 19.3732 22.375 19.0625 22.375H16.8125C16.5018 22.375 16.25 22.1232 16.25 21.8125V20.6875Z" fill="black"/>
<path fill-rule="evenodd" clip-rule="evenodd" d="M16.25 24.0625C16.25 23.7518 16.5018 23.5 16.8125 23.5H22.4375C22.7482 23.5 23 23.7518 23 24.0625C23 24.3732 22.7482 24.625 22.4375 24.625H16.8125C16.5018 24.625 16.25 24.3732 16.25 24.0625ZM16.25 26.3125C16.25 26.0018 16.5018 25.75 16.8125 25.75H17.9375C18.2482 25.75 18.5 26.0018 18.5 26.3125C18.5 26.6232 18.2482 26.875 17.9375 26.875H16.8125C16.5018 26.875 16.25 26.6232 16.25 26.3125ZM19.625 26.3125C19.625 26.0018 19.8768 25.75 20.1875 25.75H21.3125C21.6232 25.75 21.875 26.0018 21.875 26.3125C21.875 26.6232 21.6232 26.875 21.3125 26.875H20.1875C19.8768 26.875 19.625 26.6232 19.625 26.3125ZM23 26.3125C23 26.0018 23.2518 25.75 23.5625 25.75H24.6875C24.9982 25.75 25.25 26.0018 25.25 26.3125C25.25 26.6232 24.9982 26.875 24.6875 26.875H23.5625C23.2518 26.875 23 26.6232 23 26.3125ZM26.375 26.3125C26.375 26.0018 26.6268 25.75 26.9375 25.75H28.0625C28.3732 25.75 28.625 26.0018 28.625 26.3125C28.625 26.6232 28.3732 26.875 28.0625 26.875H26.9375C26.6268 26.875 26.375 26.6232 26.375 26.3125Z" fill="black"/>
</mask>
<g mask="url(#mask0_1973_1156)">
<rect x="14" y="14.5" width="18" height="18" fill="white"/>
</g>
</svg>
