<svg width="47" height="47" viewBox="0 0 47 47" fill="none" xmlns="http://www.w3.org/2000/svg">
<rect x="0.5" y="0.5" width="46" height="46" rx="23" fill="#02A09B"/>
<path fill-rule="evenodd" clip-rule="evenodd" d="M17.3125 31.375C17.0018 31.375 16.75 31.1232 16.75 30.8125C16.75 30.5019 17.0018 30.25 17.3125 30.25H18.4375V29.125C18.4375 27.1112 19.6134 25.373 21.3136 24.5578C21.6398 24.4015 21.8125 24.1336 21.8125 23.8947V23.1053C21.8125 22.8665 21.6398 22.5986 21.3136 22.4422C19.6134 21.627 18.4375 19.8889 18.4375 17.875V16.75H17.3125C17.0018 16.75 16.75 16.4982 16.75 16.1875C16.75 15.8768 17.0018 15.625 17.3125 15.625L29.6875 15.625C29.9982 15.625 30.25 15.8769 30.25 16.1875C30.25 16.4982 29.9982 16.75 29.6875 16.75L28.5625 16.75V17.875C28.5625 19.8889 27.3866 21.627 25.6864 22.4422C25.3602 22.5986 25.1875 22.8665 25.1875 23.1053V23.8947C25.1875 24.1336 25.3602 24.4015 25.6864 24.5578C27.3866 25.373 28.5625 27.1112 28.5625 29.125V30.25H29.6875C29.9982 30.25 30.25 30.5019 30.25 30.8125C30.25 31.1232 29.9982 31.375 29.6875 31.375H17.3125ZM19.5625 16.75V17.875C19.5625 18.4788 19.6984 19.051 19.9414 19.5625H27.0586C27.3016 19.051 27.4375 18.4788 27.4375 17.875V16.75H19.5625ZM22.9375 23.8947C22.9375 24.6825 22.3996 25.2848 21.8 25.5723C20.4753 26.2075 19.5625 27.5602 19.5625 29.125C19.5625 29.125 20.5365 27.6641 22.9375 27.4609V23.8947ZM24.0625 23.8947C24.0625 24.6825 24.6004 25.2848 25.2 25.5723C26.5247 26.2075 27.4375 27.5602 27.4375 29.125C27.4375 29.125 26.4635 27.6641 24.0625 27.4609V23.8947Z" fill="white"/>
</svg>
