<svg width="400" height="120" viewBox="0 0 400 120" fill="none" xmlns="http://www.w3.org/2000/svg">
<rect x="0.5" y="0.5" width="399" height="119" rx="5.5" fill="#F9FAFB"/>
<rect x="0.5" y="0.5" width="399" height="119" rx="5.5" stroke="#CACACA" stroke-dasharray="6 6"/>
<rect x="178" y="16" width="44" height="44" rx="22" fill="#F5F5F5"/>
<path d="M197 43.7505C196.59 43.7505 196.25 43.4105 196.25 43.0005V38.8105L195.53 39.5305C195.24 39.8205 194.76 39.8205 194.47 39.5305C194.18 39.2405 194.18 38.7605 194.47 38.4705L196.47 36.4705C196.68 36.2605 197.01 36.1905 197.29 36.3105C197.57 36.4205 197.75 36.7005 197.75 37.0005V43.0005C197.75 43.4105 197.41 43.7505 197 43.7505Z" fill="#02A09B"/>
<path d="M199 39.7495C198.81 39.7495 198.62 39.6795 198.47 39.5295L196.47 37.5295C196.18 37.2395 196.18 36.7595 196.47 36.4695C196.76 36.1795 197.24 36.1795 197.53 36.4695L199.53 38.4695C199.82 38.7595 199.82 39.2395 199.53 39.5295C199.38 39.6795 199.19 39.7495 199 39.7495Z" fill="#02A09B"/>
<path d="M203 48.75H197C191.57 48.75 189.25 46.43 189.25 41V35C189.25 29.57 191.57 27.25 197 27.25H202C202.41 27.25 202.75 27.59 202.75 28C202.75 28.41 202.41 28.75 202 28.75H197C192.39 28.75 190.75 30.39 190.75 35V41C190.75 45.61 192.39 47.25 197 47.25H203C207.61 47.25 209.25 45.61 209.25 41V36C209.25 35.59 209.59 35.25 210 35.25C210.41 35.25 210.75 35.59 210.75 36V41C210.75 46.43 208.43 48.75 203 48.75Z" fill="#02A09B"/>
<path d="M210 36.7505H206C202.58 36.7505 201.25 35.4205 201.25 32.0005V28.0005C201.25 27.7005 201.43 27.4205 201.71 27.3105C201.99 27.1905 202.31 27.2605 202.53 27.4705L210.53 35.4705C210.74 35.6805 210.81 36.0105 210.69 36.2905C210.57 36.5705 210.3 36.7505 210 36.7505ZM202.75 29.8105V32.0005C202.75 34.5805 203.42 35.2505 206 35.2505H208.19L202.75 29.8105Z" fill="#02A09B"/>
<path d="M112.502 74.692V82.583C112.502 82.7217 112.545 82.8387 112.632 82.934C112.727 83.0293 112.849 83.077 112.996 83.077H113.165V84H112.567C112.29 84 112.047 83.909 111.839 83.727C111.544 83.4757 111.397 83.155 111.397 82.765V74.692H112.502ZM115.962 75.16C116.144 75.16 116.296 75.225 116.417 75.355C116.547 75.4763 116.612 75.6237 116.612 75.797C116.612 75.979 116.547 76.135 116.417 76.265C116.296 76.3863 116.144 76.447 115.962 76.447C115.789 76.447 115.637 76.3863 115.507 76.265C115.386 76.135 115.325 75.979 115.325 75.797C115.325 75.6237 115.386 75.4763 115.507 75.355C115.637 75.225 115.789 75.16 115.962 75.16ZM116.521 78.02V82.765C116.521 82.869 116.508 82.973 116.482 83.077H117.171V84H116.664L116.287 83.545H116.248C116.014 83.8483 115.711 84 115.338 84H113.076V83.077H114.922C115.061 83.077 115.173 83.0337 115.26 82.947C115.364 82.8517 115.416 82.7303 115.416 82.583V78.02H116.521ZM120.286 78.163C121.222 77.7297 122.18 77.513 123.159 77.513C124.173 77.513 124.962 77.7643 125.525 78.267C126.227 78.9083 126.578 79.957 126.578 81.413V82.765C126.578 83.0683 126.483 83.337 126.292 83.571C126.058 83.857 125.768 84 125.421 84H122.288C121.794 84 121.456 83.9697 121.274 83.909H121.222C121.049 83.9697 120.706 84 120.195 84H117.075V83.077H119.597C119.398 82.8517 119.246 82.583 119.142 82.271C119.021 81.933 118.96 81.5777 118.96 81.205C118.96 80.5897 119.09 80.074 119.35 79.658C119.584 79.3027 119.896 79.047 120.286 78.891V78.163ZM125.473 81.595C125.473 80.477 125.282 79.684 124.901 79.216C124.511 78.7307 123.857 78.488 122.938 78.488C122.331 78.488 121.777 78.566 121.274 78.722C121.95 78.7307 122.483 78.9343 122.873 79.333C123.315 79.775 123.536 80.399 123.536 81.205C123.536 81.543 123.484 81.868 123.38 82.18C123.267 82.544 123.103 82.843 122.886 83.077H124.992C125.105 83.077 125.204 83.0423 125.291 82.973C125.412 82.8777 125.473 82.7477 125.473 82.583V81.595ZM122.561 81.192C122.561 80.6807 122.44 80.2733 122.197 79.97C121.963 79.6667 121.638 79.515 121.222 79.515C120.771 79.515 120.429 79.684 120.195 80.022C119.996 80.3167 119.896 80.7197 119.896 81.231C119.905 81.6903 120.013 82.0803 120.221 82.401C120.464 82.7823 120.797 82.9817 121.222 82.999C121.612 82.9817 121.933 82.804 122.184 82.466C122.435 82.1193 122.561 81.6947 122.561 81.192ZM135.883 77.669V82.583C135.883 82.739 135.927 82.8603 136.013 82.947C136.091 83.0337 136.178 83.077 136.273 83.077H136.533V84H135.987C135.589 84 135.272 83.8483 135.038 83.545C134.475 83.9437 133.868 84.143 133.218 84.143C132.308 84.143 131.589 83.7877 131.06 83.077C130.627 82.4963 130.41 81.803 130.41 80.997C130.41 80.0523 130.722 79.268 131.346 78.644C131.901 78.0807 132.581 77.799 133.387 77.799C133.847 77.799 134.31 77.903 134.778 78.111L135.337 77.669H135.883ZM134.778 79.021C134.397 78.8303 134.011 78.735 133.621 78.735C132.963 78.735 132.43 78.995 132.022 79.515C131.684 79.9397 131.515 80.4423 131.515 81.023C131.515 81.7163 131.68 82.2623 132.009 82.661C132.33 83.025 132.763 83.207 133.309 83.207C133.777 83.207 134.267 83.0813 134.778 82.83V79.021ZM138.255 80.139C138.558 79.3763 139.065 78.7827 139.776 78.358C140.348 78.0287 140.942 77.864 141.557 77.864C142.172 77.864 142.762 78.0287 143.325 78.358C144.044 78.7827 144.551 79.3763 144.846 80.139L144.729 80.451C144.131 80.7023 143.641 81.0447 143.26 81.478C142.87 81.9287 142.623 82.4617 142.519 83.077H144.976V84H142.337C142.077 84 141.826 83.8743 141.583 83.623H141.544C141.31 83.8743 141.059 84 140.79 84H136.448V83.077H140.595C140.5 82.5483 140.283 82.05 139.945 81.582C139.555 81.0967 139.035 80.7197 138.385 80.451L138.255 80.139ZM143.65 80.009C143.364 79.593 143.039 79.281 142.675 79.073C142.328 78.891 141.956 78.8 141.557 78.8C141.158 78.8 140.799 78.8823 140.478 79.047C140.097 79.2377 139.759 79.5583 139.464 80.009C139.915 80.2083 140.3 80.49 140.621 80.854C141.02 81.3047 141.323 81.868 141.531 82.544H141.57C141.787 81.842 142.099 81.2657 142.506 80.815C142.835 80.4683 143.217 80.1997 143.65 80.009ZM152.248 75.16C152.422 75.16 152.569 75.225 152.69 75.355C152.82 75.4763 152.885 75.6237 152.885 75.797C152.885 75.979 152.82 76.135 152.69 76.265C152.569 76.3863 152.422 76.447 152.248 76.447C152.066 76.447 151.91 76.3863 151.78 76.265C151.659 76.135 151.598 75.979 151.598 75.797C151.598 75.6237 151.659 75.4763 151.78 75.355C151.91 75.225 152.066 75.16 152.248 75.16ZM148.335 80.867C149.523 78.8563 151.07 77.851 152.976 77.851C154.025 77.851 154.866 78.176 155.498 78.826C156.07 79.4067 156.356 80.1433 156.356 81.036V82.765C156.356 83.129 156.231 83.4323 155.979 83.675C155.754 83.8917 155.49 84 155.186 84H144.89V83.077H147.23V78.02H148.335V80.867ZM155.251 80.919C155.243 80.217 154.983 79.6753 154.471 79.294C154.038 78.9733 153.496 78.813 152.846 78.813C152.144 78.813 151.481 79.0167 150.857 79.424C149.817 80.1173 148.977 81.335 148.335 83.077H154.757C155.087 83.077 155.251 82.9123 155.251 82.583V80.919ZM162.162 83.87C161.711 84.0347 161.239 84.117 160.745 84.117C159.809 84.117 159.068 83.7877 158.522 83.129C158.037 82.5483 157.794 81.8073 157.794 80.906C157.794 79.996 158.05 79.268 158.561 78.722C159.107 78.15 159.844 77.864 160.771 77.864C161.473 77.864 162.045 78.0417 162.487 78.397C163.016 78.8217 163.28 79.4327 163.28 80.23V83.883C163.271 84.9923 162.907 85.8287 162.188 86.392C161.824 86.678 161.386 86.8773 160.875 86.99C160.537 87.0593 160.186 87.094 159.822 87.094C159.614 87.094 159.415 87.0897 159.224 87.081L158.795 86.548V86.132C159.055 86.1667 159.328 86.184 159.614 86.184C161.304 86.184 162.153 85.4127 162.162 83.87ZM162.162 80.23C162.162 79.6927 161.971 79.2897 161.59 79.021C161.373 78.8737 161.1 78.8 160.771 78.8C160.19 78.8 159.731 78.995 159.393 79.385C159.064 79.775 158.899 80.3167 158.899 81.01C158.899 81.6687 159.09 82.1887 159.471 82.57C159.809 82.9253 160.26 83.103 160.823 83.103C161.317 83.103 161.763 83.025 162.162 82.869V80.23ZM177.929 78.02V82.765C177.929 82.8777 177.916 82.9817 177.89 83.077H178.592V84H178.124L177.695 83.545H177.669C177.426 83.8483 177.123 84 176.759 84H169.323C168.837 84 168.408 83.8397 168.036 83.519C167.533 83.103 167.282 82.5483 167.282 81.855V79.411L167.841 78.956H168.387V81.855C168.387 82.193 168.504 82.479 168.738 82.713C168.989 82.9557 169.288 83.077 169.635 83.077H176.33C176.477 83.077 176.603 83.025 176.707 82.921C176.785 82.8343 176.824 82.7217 176.824 82.583V78.02H177.929ZM172.612 85.352C172.785 85.352 172.932 85.4127 173.054 85.534C173.184 85.664 173.249 85.8157 173.249 85.989C173.249 86.171 173.184 86.3227 173.054 86.444C172.932 86.574 172.785 86.639 172.612 86.639C172.43 86.639 172.274 86.574 172.144 86.444C172.022 86.3227 171.962 86.171 171.962 85.989C171.962 85.8157 172.022 85.664 172.144 85.534C172.274 85.4127 172.43 85.352 172.612 85.352ZM180.211 78.241C181.009 77.9897 181.754 77.864 182.447 77.864C183.522 77.864 184.341 78.1977 184.904 78.865C185.39 79.437 185.632 80.1867 185.632 81.114V82.765C185.632 82.869 185.619 82.973 185.593 83.077H186.048V84H185.775L185.411 83.545H185.372C185.13 83.8483 184.826 84 184.462 84H178.482V83.077H184.033C184.363 83.077 184.527 82.9123 184.527 82.583V81.075C184.527 80.399 184.35 79.866 183.994 79.476C183.604 79.0427 183.037 78.826 182.291 78.826C181.841 78.826 181.147 78.9213 180.211 79.112V78.241ZM198.323 78.02V82.765C198.323 82.8777 198.31 82.9817 198.284 83.077H198.986V84H198.466L198.102 83.545H198.063C197.82 83.8483 197.517 84 197.153 84H194.592L194.228 83.545H194.189C193.946 83.8483 193.643 84 193.279 84H190.718L190.354 83.545H190.315C190.072 83.8483 189.769 84 189.405 84H185.96V83.077H188.976C189.305 83.077 189.47 82.9123 189.47 82.583V79.515H190.575V82.765C190.575 82.8777 190.566 82.9817 190.549 83.077H192.85C193.179 83.077 193.344 82.9123 193.344 82.583V78.761H194.449V82.765C194.449 82.8777 194.436 82.9817 194.41 83.077H196.724C197.053 83.077 197.218 82.9123 197.218 82.583V78.02H198.323ZM202.329 74.692V82.765C202.329 83.103 202.216 83.389 201.991 83.623C201.757 83.8743 201.475 84 201.146 84H198.884V83.077H200.73C200.894 83.077 201.02 83.0207 201.107 82.908C201.185 82.8127 201.224 82.7043 201.224 82.583V74.692H202.329ZM205.229 74.692V82.583C205.229 82.7217 205.272 82.8387 205.359 82.934C205.454 83.0293 205.575 83.077 205.723 83.077H205.892V84H205.294C205.016 84 204.774 83.909 204.566 83.727C204.271 83.4757 204.124 83.155 204.124 82.765V74.692H205.229ZM209.247 78.02V82.765C209.247 83.0857 209.143 83.363 208.935 83.597C208.701 83.8657 208.411 84 208.064 84H205.802V83.077H207.648C207.796 83.077 207.917 83.025 208.012 82.921C208.099 82.8343 208.142 82.7217 208.142 82.583V78.02H209.247ZM208.363 85.352C208.537 85.352 208.684 85.4127 208.805 85.534C208.935 85.664 209 85.8157 209 85.989C209 86.171 208.935 86.3227 208.805 86.444C208.684 86.574 208.537 86.639 208.363 86.639C208.19 86.639 208.038 86.574 207.908 86.444C207.787 86.3227 207.726 86.171 207.726 85.989C207.726 85.8157 207.787 85.664 207.908 85.534C208.038 85.4127 208.19 85.352 208.363 85.352ZM214.963 83.077C214.495 82.583 214.261 81.8853 214.261 80.984C214.287 79.9613 214.595 79.1727 215.184 78.618C215.704 78.1413 216.389 77.8943 217.238 77.877C217.949 77.877 218.521 78.0547 218.954 78.41C219.474 78.826 219.734 79.4327 219.734 80.23V82.583C219.734 82.739 219.778 82.8603 219.864 82.947C219.934 83.025 220.016 83.0683 220.111 83.077H220.15V84H219.825C219.678 84 219.539 83.974 219.409 83.922C219.219 83.8613 219.045 83.7357 218.889 83.545C218.655 83.701 218.382 83.818 218.07 83.896C217.776 83.9653 217.334 84 216.744 84H214.846C214.517 84 214.352 84.1647 214.352 84.494V88.394L213.793 88.849H213.247V84.299C213.247 83.9437 213.373 83.6447 213.624 83.402C213.858 83.1853 214.127 83.077 214.43 83.077H214.963ZM218.616 80.23C218.616 79.84 218.508 79.5107 218.291 79.242C218.031 78.9473 217.672 78.8 217.212 78.8C216.666 78.8 216.22 78.9993 215.873 79.398C215.535 79.788 215.366 80.2993 215.366 80.932C215.366 81.6167 215.535 82.1497 215.873 82.531C216.211 82.9037 216.692 83.09 217.316 83.09C217.845 83.09 218.278 82.986 218.616 82.778V80.23ZM224.337 75.16C224.51 75.16 224.657 75.225 224.779 75.355C224.909 75.4763 224.974 75.6237 224.974 75.797C224.974 75.979 224.909 76.135 224.779 76.265C224.657 76.3863 224.51 76.447 224.337 76.447C224.155 76.447 223.999 76.3863 223.869 76.265C223.747 76.135 223.687 75.979 223.687 75.797C223.687 75.6237 223.747 75.4763 223.869 75.355C223.999 75.225 224.155 75.16 224.337 75.16ZM225.91 75.16C226.092 75.16 226.243 75.225 226.365 75.355C226.486 75.4763 226.547 75.6237 226.547 75.797C226.547 75.979 226.486 76.135 226.365 76.265C226.243 76.3863 226.092 76.447 225.91 76.447C225.736 76.447 225.585 76.3863 225.455 76.265C225.333 76.135 225.273 75.979 225.273 75.797C225.273 75.6237 225.333 75.4763 225.455 75.355C225.585 75.225 225.736 75.16 225.91 75.16ZM222.959 83.077C222.629 82.7737 222.387 82.3967 222.231 81.946C222.109 81.582 222.049 81.2223 222.049 80.867C222.049 79.9397 222.326 79.203 222.881 78.657C223.427 78.1283 224.168 77.864 225.104 77.864C225.814 77.864 226.382 78.046 226.807 78.41C227.301 78.826 227.556 79.4327 227.574 80.23V82.765C227.574 83.103 227.457 83.3933 227.223 83.636C226.997 83.8787 226.724 84 226.404 84H220.047V83.077H222.959ZM226.456 80.23C226.456 79.7447 226.313 79.372 226.027 79.112C225.801 78.904 225.494 78.8 225.104 78.8C224.384 78.8 223.856 79.0513 223.518 79.554C223.275 79.9007 223.154 80.3513 223.154 80.906C223.162 81.4953 223.353 81.998 223.726 82.414C224.116 82.856 224.631 83.077 225.273 83.077H225.975C226.295 83.077 226.456 82.9123 226.456 82.583V80.23ZM235.757 83.87C235.306 84.0347 234.834 84.117 234.34 84.117C233.404 84.117 232.663 83.7877 232.117 83.129C231.631 82.5483 231.389 81.8073 231.389 80.906C231.389 79.996 231.644 79.268 232.156 78.722C232.702 78.15 233.438 77.864 234.366 77.864C235.068 77.864 235.64 78.0417 236.082 78.397C236.61 78.8217 236.875 79.4327 236.875 80.23V83.883C236.866 84.9923 236.502 85.8287 235.783 86.392C235.419 86.678 234.981 86.8773 234.47 86.99C234.132 87.0593 233.781 87.094 233.417 87.094C233.209 87.094 233.009 87.0897 232.819 87.081L232.39 86.548V86.132C232.65 86.1667 232.923 86.184 233.209 86.184C234.899 86.184 235.748 85.4127 235.757 83.87ZM235.757 80.23C235.757 79.6927 235.566 79.2897 235.185 79.021C234.968 78.8737 234.695 78.8 234.366 78.8C233.785 78.8 233.326 78.995 232.988 79.385C232.658 79.775 232.494 80.3167 232.494 81.01C232.494 81.6687 232.684 82.1887 233.066 82.57C233.404 82.9253 233.854 83.103 234.418 83.103C234.912 83.103 235.358 83.025 235.757 82.869V80.23ZM238.256 73.184C238.074 72.95 237.983 72.664 237.983 72.326C237.983 71.988 238.082 71.7193 238.282 71.52C238.481 71.312 238.745 71.208 239.075 71.208C239.283 71.208 239.491 71.2427 239.699 71.312V71.845C239.543 71.8017 239.391 71.78 239.244 71.78C238.793 71.78 238.568 72.0097 238.568 72.469C238.568 72.6337 238.624 72.7853 238.737 72.924C238.875 73.0973 239.062 73.184 239.296 73.184H240.128V73.405L239.868 73.717H237.684V73.184H238.256ZM239.595 74.692V83.87L239.036 84.325H238.49V74.692H239.595ZM244.876 74.692V82.583C244.876 82.7217 244.919 82.8387 245.006 82.934C245.101 83.0293 245.223 83.077 245.37 83.077H245.539V84H244.941C244.664 84 244.421 83.909 244.213 83.727C243.918 83.4757 243.771 83.155 243.771 82.765V74.692H244.876ZM251.458 71.991L248.871 72.706L248.65 72.42V72.199L251.458 71.419V71.991ZM251.458 73.187L248.871 73.902L248.65 73.616V73.395L251.458 72.628V73.187ZM250.312 75.16C250.485 75.16 250.633 75.225 250.754 75.355C250.884 75.4763 250.949 75.6237 250.949 75.797C250.949 75.979 250.884 76.135 250.754 76.265C250.633 76.3863 250.485 76.447 250.312 76.447C250.13 76.447 249.978 76.3863 249.857 76.265C249.736 76.135 249.675 75.979 249.675 75.797C249.675 75.6237 249.736 75.4763 249.857 75.355C249.978 75.225 250.13 75.16 250.312 75.16ZM248.271 83.077C247.725 82.479 247.452 81.7423 247.452 80.867C247.452 80.0263 247.682 79.3373 248.141 78.8C248.67 78.176 249.372 77.864 250.247 77.864C250.949 77.864 251.547 78.072 252.041 78.488C252.717 79.0513 253.055 79.8443 253.055 80.867C253.055 81.7337 252.782 82.4703 252.236 83.077H253.367V84H251.495H251.352C250.841 84 250.481 83.9653 250.273 83.896H250.221C250.013 83.9653 249.653 84 249.142 84H248.986H245.45V83.077H248.271ZM250.247 78.8C249.718 78.8 249.302 78.9863 248.999 79.359C248.704 79.7317 248.557 80.2473 248.557 80.906C248.557 81.504 248.717 82.011 249.038 82.427C249.367 82.843 249.77 83.0597 250.247 83.077C250.724 83.0597 251.122 82.843 251.443 82.427C251.772 82.011 251.937 81.504 251.937 80.906C251.937 80.2473 251.785 79.7317 251.482 79.359C251.187 78.9863 250.776 78.8 250.247 78.8ZM256.715 74.692V82.765C256.715 82.869 256.702 82.973 256.676 83.077H257.365V84H256.91L256.481 83.545H256.442C256.208 83.8483 255.905 84 255.532 84H253.27V83.077H255.116C255.281 83.077 255.411 83.012 255.506 82.882C255.576 82.7953 255.61 82.6957 255.61 82.583V74.692H256.715ZM259.609 80.23C259.609 79.346 259.921 78.696 260.545 78.28C260.953 78.0113 261.494 77.877 262.17 77.877C262.994 77.877 263.683 78.1587 264.237 78.722C264.792 79.2853 265.069 80.074 265.069 81.088C265.069 82.0327 264.792 82.83 264.237 83.48C263.717 84.0867 263.059 84.39 262.261 84.39C261.516 84.39 260.909 84.1083 260.441 83.545C260.207 83.8483 259.895 84 259.505 84H257.269V83.077H259.115C259.254 83.077 259.371 83.0293 259.466 82.934C259.562 82.8387 259.609 82.7217 259.609 82.583V80.23ZM260.714 82.778C261.165 83.2373 261.663 83.467 262.209 83.467C262.729 83.467 263.15 83.2547 263.47 82.83C263.8 82.3967 263.964 81.8377 263.964 81.153C263.964 80.3903 263.774 79.788 263.392 79.346C263.072 78.982 262.647 78.8 262.118 78.8C261.72 78.8 261.395 78.917 261.143 79.151C260.857 79.4197 260.714 79.7793 260.714 80.23V82.778ZM269.882 77.942C270.194 77.89 270.527 77.864 270.883 77.864C271.845 77.864 272.62 78.1543 273.21 78.735C273.738 79.2723 274.003 79.9527 274.003 80.776V82.765C274.003 83.103 273.894 83.389 273.678 83.623C273.452 83.8743 273.175 84 272.846 84H268.569V83.077H272.417C272.737 83.077 272.898 82.9123 272.898 82.583V80.932C272.898 80.3167 272.711 79.8053 272.339 79.398C271.94 78.982 271.325 78.7697 270.493 78.761C270.25 78.761 270.046 78.7783 269.882 78.813V77.942ZM276.597 77.942C276.909 77.89 277.243 77.864 277.598 77.864C278.56 77.864 279.336 78.1543 279.925 78.735C280.454 79.2723 280.718 79.9527 280.718 80.776V82.765C280.718 82.8777 280.71 82.9817 280.692 83.077H281.056V84H280.861L280.497 83.545H280.458C280.389 83.6317 280.311 83.7097 280.224 83.779C280.016 83.9263 279.791 84 279.548 84H275.284V83.077H279.132C279.453 83.077 279.613 82.9123 279.613 82.583V80.932C279.613 80.3167 279.427 79.8053 279.054 79.398C278.656 78.982 278.04 78.7697 277.208 78.761C276.966 78.761 276.762 78.7783 276.597 78.813V77.942ZM282.675 78.241C283.472 77.9897 284.218 77.864 284.911 77.864C285.986 77.864 286.805 78.1977 287.368 78.865C287.853 79.437 288.096 80.1867 288.096 81.114V82.765C288.096 83.0597 288.005 83.3197 287.823 83.545C287.598 83.8483 287.299 84 286.926 84H280.946V83.077H286.497C286.826 83.077 286.991 82.9123 286.991 82.583V81.075C286.991 80.399 286.813 79.866 286.458 79.476C286.068 79.0427 285.5 78.826 284.755 78.826C284.304 78.826 283.611 78.9213 282.675 79.112V78.241Z" fill="black"/>
<path d="M125.522 96.156C125.682 96.156 125.818 96.216 125.93 96.336C126.05 96.448 126.11 96.588 126.11 96.756C126.11 96.916 126.05 97.056 125.93 97.176C125.818 97.288 125.682 97.344 125.522 97.344C125.354 97.344 125.214 97.288 125.102 97.176C124.99 97.056 124.934 96.916 124.934 96.756C124.934 96.588 124.99 96.448 125.102 96.336C125.214 96.216 125.354 96.156 125.522 96.156ZM126.974 96.156C127.142 96.156 127.282 96.216 127.394 96.336C127.514 96.448 127.574 96.588 127.574 96.756C127.574 96.916 127.514 97.056 127.394 97.176C127.282 97.288 127.142 97.344 126.974 97.344C126.814 97.344 126.674 97.288 126.554 97.176C126.442 97.056 126.386 96.916 126.386 96.756C126.386 96.588 126.442 96.448 126.554 96.336C126.674 96.216 126.814 96.156 126.974 96.156ZM131.15 96.48V100.86C131.15 100.964 131.138 101.06 131.114 101.148H131.762V102H131.33L130.934 101.58H130.91C130.686 101.86 130.406 102 130.07 102H123.206C122.758 102 122.362 101.852 122.018 101.556C121.554 101.172 121.322 100.66 121.322 100.02V97.764L121.838 97.344H122.342V100.02C122.342 100.332 122.45 100.596 122.666 100.812C122.898 101.036 123.174 101.148 123.494 101.148H129.674C129.81 101.148 129.926 101.1 130.022 101.004C130.094 100.924 130.13 100.82 130.13 100.692V96.48H131.15ZM134.841 96.48V100.86C134.841 101.156 134.745 101.412 134.553 101.628C134.337 101.876 134.069 102 133.749 102H131.661V101.148H133.365C133.501 101.148 133.613 101.1 133.701 101.004C133.781 100.924 133.821 100.82 133.821 100.692V96.48H134.841ZM132.681 103.248C132.841 103.248 132.977 103.304 133.089 103.416C133.209 103.536 133.269 103.676 133.269 103.836C133.269 104.004 133.209 104.144 133.089 104.256C132.977 104.376 132.841 104.436 132.681 104.436C132.513 104.436 132.369 104.376 132.249 104.256C132.137 104.144 132.081 104.004 132.081 103.836C132.081 103.676 132.137 103.536 132.249 103.416C132.369 103.304 132.513 103.248 132.681 103.248ZM134.133 103.248C134.301 103.248 134.441 103.304 134.553 103.416C134.665 103.536 134.721 103.676 134.721 103.836C134.721 104.004 134.665 104.144 134.553 104.256C134.441 104.376 134.301 104.436 134.133 104.436C133.973 104.436 133.833 104.376 133.713 104.256C133.601 104.144 133.545 104.004 133.545 103.836C133.545 103.676 133.601 103.536 133.713 103.416C133.833 103.304 133.973 103.248 134.133 103.248ZM137.518 93.408V100.692C137.518 100.82 137.558 100.928 137.638 101.016C137.726 101.104 137.838 101.148 137.974 101.148H138.13V102H137.578C137.322 102 137.098 101.916 136.906 101.748C136.634 101.516 136.498 101.22 136.498 100.86V93.408H137.518ZM141.228 96.48V100.86C141.228 101.156 141.132 101.412 140.94 101.628C140.724 101.876 140.456 102 140.136 102H138.048V101.148H139.752C139.888 101.148 140 101.1 140.088 101.004C140.168 100.924 140.208 100.82 140.208 100.692V96.48H141.228ZM140.412 103.248C140.572 103.248 140.708 103.304 140.82 103.416C140.94 103.536 141 103.676 141 103.836C141 104.004 140.94 104.144 140.82 104.256C140.708 104.376 140.572 104.436 140.412 104.436C140.252 104.436 140.112 104.376 139.992 104.256C139.88 104.144 139.824 104.004 139.824 103.836C139.824 103.676 139.88 103.536 139.992 103.416C140.112 103.304 140.252 103.248 140.412 103.248ZM143.905 93.408V100.692C143.905 100.82 143.945 100.928 144.025 101.016C144.113 101.104 144.225 101.148 144.361 101.148H144.517V102H143.965C143.709 102 143.485 101.916 143.293 101.748C143.021 101.516 142.885 101.22 142.885 100.86V93.408H143.905ZM146.03 96.684C146.766 96.452 147.454 96.336 148.094 96.336C149.086 96.336 149.842 96.644 150.362 97.26C150.81 97.788 151.034 98.48 151.034 99.336V100.86C151.034 100.956 151.022 101.052 150.998 101.148H151.418V102H151.166L150.83 101.58H150.794C150.57 101.86 150.29 102 149.954 102H144.434V101.148H149.558C149.862 101.148 150.014 100.996 150.014 100.692V99.3C150.014 98.676 149.85 98.184 149.522 97.824C149.162 97.424 148.638 97.224 147.95 97.224C147.534 97.224 146.894 97.312 146.03 97.488V96.684ZM147.458 103.248C147.626 103.248 147.766 103.304 147.878 103.416C147.998 103.536 148.058 103.676 148.058 103.836C148.058 104.004 147.998 104.144 147.878 104.256C147.766 104.376 147.626 104.436 147.458 104.436C147.298 104.436 147.158 104.376 147.038 104.256C146.926 104.144 146.87 104.004 146.87 103.836C146.87 103.676 146.926 103.536 147.038 103.416C147.158 103.304 147.298 103.248 147.458 103.248ZM154.517 96.48V100.86C154.517 100.956 154.505 101.052 154.481 101.148H155.117V102H154.649L154.301 101.58H154.265C154.049 101.86 153.769 102 153.425 102H151.337V101.148H153.041C153.169 101.148 153.273 101.108 153.353 101.028C153.449 100.94 153.497 100.828 153.497 100.692V96.48H154.517ZM152.465 103.248C152.625 103.248 152.761 103.304 152.873 103.416C152.993 103.536 153.053 103.676 153.053 103.836C153.053 104.004 152.993 104.144 152.873 104.256C152.761 104.376 152.625 104.436 152.465 104.436C152.305 104.436 152.165 104.376 152.045 104.256C151.933 104.144 151.877 104.004 151.877 103.836C151.877 103.676 151.933 103.536 152.045 103.416C152.165 103.304 152.305 103.248 152.465 103.248ZM153.917 103.248C154.085 103.248 154.225 103.304 154.337 103.416C154.457 103.536 154.517 103.676 154.517 103.836C154.517 104.004 154.457 104.144 154.337 104.256C154.225 104.376 154.085 104.436 153.917 104.436C153.757 104.436 153.617 104.376 153.497 104.256C153.385 104.144 153.329 104.004 153.329 103.836C153.329 103.676 153.385 103.536 153.497 103.416C153.617 103.304 153.757 103.248 153.917 103.248ZM157.188 98.52C157.188 97.704 157.476 97.104 158.052 96.72C158.428 96.472 158.928 96.348 159.552 96.348C160.312 96.348 160.948 96.608 161.46 97.128C161.972 97.648 162.228 98.376 162.228 99.312C162.228 100.184 161.972 100.92 161.46 101.52C160.98 102.08 160.372 102.36 159.636 102.36C158.948 102.36 158.388 102.1 157.956 101.58C157.74 101.86 157.452 102 157.092 102H155.028V101.148H156.732C156.86 101.148 156.968 101.104 157.056 101.016C157.144 100.928 157.188 100.82 157.188 100.692V98.52ZM158.208 100.872C158.624 101.296 159.084 101.508 159.588 101.508C160.068 101.508 160.456 101.312 160.752 100.92C161.056 100.52 161.208 100.004 161.208 99.372C161.208 98.668 161.032 98.112 160.68 97.704C160.384 97.368 159.992 97.2 159.504 97.2C159.136 97.2 158.836 97.308 158.604 97.524C158.34 97.772 158.208 98.104 158.208 98.52V100.872ZM168.422 93.408V101.544L167.906 102H167.402V94.632L165.914 95.88L165.374 95.208L167.51 93.408H168.422ZM172.424 102.156C171.36 102.156 170.6 101.6 170.144 100.488C169.848 99.776 169.7 98.892 169.7 97.836C169.7 96.508 169.932 95.412 170.396 94.548C170.852 93.684 171.528 93.252 172.424 93.252C173.296 93.252 173.964 93.672 174.428 94.512C174.916 95.368 175.16 96.464 175.16 97.8C175.16 99.056 174.96 100.064 174.56 100.824C174.088 101.712 173.376 102.156 172.424 102.156ZM174.116 97.824C174.116 95.384 173.552 94.164 172.424 94.164C171.304 94.164 170.744 95.376 170.744 97.8C170.744 98.816 170.836 99.58 171.02 100.092C171.284 100.852 171.752 101.232 172.424 101.232C173.552 101.232 174.116 100.096 174.116 97.824ZM182.311 96.336C182.471 96.336 182.607 96.396 182.719 96.516C182.839 96.628 182.899 96.764 182.899 96.924C182.899 97.092 182.839 97.236 182.719 97.356C182.607 97.468 182.471 97.524 182.311 97.524C182.151 97.524 182.011 97.468 181.891 97.356C181.779 97.236 181.723 97.092 181.723 96.924C181.723 96.764 181.779 96.628 181.891 96.516C182.011 96.396 182.151 96.336 182.311 96.336ZM186.271 96.48V101.148H186.883V102H186.271C186.247 102.952 185.927 103.68 185.311 104.184C184.743 104.64 184.003 104.868 183.091 104.868H181.759C180.871 104.868 180.147 104.656 179.587 104.232C178.907 103.712 178.567 102.932 178.567 101.892V99.384L179.083 98.964H179.587V101.868C179.587 102.668 179.795 103.224 180.211 103.536C180.635 103.856 181.371 104.016 182.419 104.016C183.419 104.016 184.123 103.88 184.531 103.608C185.011 103.28 185.251 102.7 185.251 101.868V96.48H186.271ZM189.473 101.148C188.953 100.612 188.693 99.924 188.693 99.084C188.693 98.188 188.989 97.484 189.581 96.972C190.077 96.548 190.717 96.336 191.501 96.336C191.925 96.336 192.369 96.404 192.833 96.54V97.344C192.361 97.224 191.949 97.164 191.597 97.164C191.005 97.164 190.541 97.348 190.205 97.716C189.877 98.076 189.713 98.576 189.713 99.216C189.713 99.736 189.889 100.196 190.241 100.596C190.569 100.964 190.949 101.148 191.381 101.148H193.805V101.484L193.385 102H186.845V101.148H189.473ZM205.202 93.84C205.37 93.84 205.51 93.9 205.622 94.02C205.742 94.132 205.802 94.268 205.802 94.428C205.802 94.596 205.742 94.74 205.622 94.86C205.51 94.972 205.37 95.028 205.202 95.028C205.042 95.028 204.902 94.972 204.782 94.86C204.67 94.74 204.614 94.596 204.614 94.428C204.614 94.268 204.67 94.132 204.782 94.02C204.902 93.9 205.042 93.84 205.202 93.84ZM203.378 101.148C202.874 100.604 202.622 99.924 202.622 99.108C202.622 98.332 202.834 97.696 203.258 97.2C203.746 96.624 204.394 96.336 205.202 96.336C205.922 96.336 206.522 96.572 207.002 97.044C207.53 97.564 207.794 98.252 207.794 99.108C207.794 99.908 207.542 100.588 207.038 101.148H208.082V102H206.366H206.222C205.75 102 205.418 101.968 205.226 101.904H205.19C204.998 101.968 204.662 102 204.182 102H204.038H199.226C198.746 102 198.33 101.836 197.978 101.508C197.554 101.116 197.342 100.62 197.342 100.02V97.764L197.858 97.344H198.362V100.02C198.362 100.324 198.466 100.584 198.674 100.8C198.898 101.032 199.178 101.148 199.514 101.148H203.378ZM206.774 99.12C206.774 98.528 206.63 98.06 206.342 97.716C206.062 97.372 205.682 97.2 205.202 97.2C204.698 97.2 204.31 97.38 204.038 97.74C203.782 98.076 203.654 98.544 203.654 99.144C203.654 99.704 203.802 100.172 204.098 100.548C204.394 100.924 204.762 101.124 205.202 101.148C205.722 101.124 206.13 100.868 206.426 100.38C206.658 100.004 206.774 99.584 206.774 99.12ZM211.177 93.408V100.86C211.177 100.956 211.165 101.052 211.141 101.148H211.777V102H211.357L210.961 101.58H210.925C210.709 101.86 210.429 102 210.085 102H207.997V101.148H209.701C209.853 101.148 209.973 101.088 210.061 100.968C210.125 100.888 210.157 100.796 210.157 100.692V93.408H211.177ZM214.052 101.148C213.724 100.612 213.56 100 213.56 99.312C213.56 98.344 213.832 97.596 214.376 97.068C214.864 96.604 215.508 96.364 216.308 96.348C216.884 96.348 217.36 96.472 217.736 96.72C218.312 97.104 218.6 97.704 218.6 98.52V100.692C218.6 100.804 218.628 100.9 218.684 100.98C218.756 101.084 218.852 101.14 218.972 101.148H218.996V102H218.696C218.336 102 218.048 101.86 217.832 101.58C217.4 102.1 216.852 102.36 216.188 102.36C215.492 102.36 214.888 102.1 214.376 101.58H214.352L214.016 102H211.688V101.148H214.052ZM217.58 98.52C217.58 98.104 217.448 97.772 217.184 97.524C216.952 97.308 216.652 97.2 216.284 97.2C215.772 97.2 215.36 97.392 215.048 97.776C214.736 98.152 214.58 98.648 214.58 99.264C214.58 99.912 214.744 100.452 215.072 100.884C215.384 101.3 215.776 101.508 216.248 101.508C216.712 101.508 217.156 101.296 217.58 100.872V98.52ZM222.075 93.408V100.86C222.075 101.172 221.971 101.436 221.763 101.652C221.547 101.884 221.287 102 220.983 102H218.895V101.148H220.599C220.751 101.148 220.867 101.096 220.947 100.992C221.019 100.904 221.055 100.804 221.055 100.692V93.408H222.075ZM224.752 93.408V101.88L224.236 102.3H223.732V93.408H224.752ZM230.023 101.148C229.591 100.692 229.375 100.048 229.375 99.216C229.399 98.272 229.683 97.544 230.227 97.032C230.707 96.592 231.339 96.364 232.123 96.348C232.779 96.348 233.307 96.512 233.707 96.84C234.187 97.224 234.427 97.784 234.427 98.52V100.692C234.427 100.836 234.467 100.948 234.547 101.028C234.611 101.1 234.687 101.14 234.775 101.148H234.811V102H234.511C234.375 102 234.247 101.976 234.127 101.928C233.951 101.872 233.791 101.756 233.647 101.58C233.431 101.724 233.179 101.832 232.891 101.904C232.619 101.968 232.211 102 231.667 102H229.915C229.611 102 229.459 102.152 229.459 102.456V106.056L228.943 106.476H228.439V102.276C228.439 101.948 228.555 101.672 228.787 101.448C229.003 101.248 229.251 101.148 229.531 101.148H230.023ZM233.395 98.52C233.395 98.16 233.295 97.856 233.095 97.608C232.855 97.336 232.523 97.2 232.099 97.2C231.595 97.2 231.183 97.384 230.863 97.752C230.551 98.112 230.395 98.584 230.395 99.168C230.395 99.8 230.551 100.292 230.863 100.644C231.175 100.988 231.619 101.16 232.195 101.16C232.683 101.16 233.083 101.064 233.395 100.872V98.52ZM236.312 96.684C237.048 96.452 237.736 96.336 238.376 96.336C239.368 96.336 240.124 96.644 240.644 97.26C241.092 97.788 241.316 98.48 241.316 99.336V100.86C241.316 100.956 241.304 101.052 241.28 101.148H241.7V102H241.448L241.112 101.58H241.076C240.852 101.86 240.572 102 240.236 102H234.716V101.148H239.84C240.144 101.148 240.296 100.996 240.296 100.692V99.3C240.296 98.676 240.132 98.184 239.804 97.824C239.444 97.424 238.92 97.224 238.232 97.224C237.816 97.224 237.176 97.312 236.312 97.488V96.684ZM237.74 103.248C237.908 103.248 238.048 103.304 238.16 103.416C238.28 103.536 238.34 103.676 238.34 103.836C238.34 104.004 238.28 104.144 238.16 104.256C238.048 104.376 237.908 104.436 237.74 104.436C237.58 104.436 237.44 104.376 237.32 104.256C237.208 104.144 237.152 104.004 237.152 103.836C237.152 103.676 237.208 103.536 237.32 103.416C237.44 103.304 237.58 103.248 237.74 103.248ZM243.214 96.684C243.95 96.452 244.638 96.336 245.278 96.336C246.27 96.336 247.026 96.644 247.546 97.26C247.994 97.788 248.218 98.48 248.218 99.336V100.86C248.218 101.132 248.134 101.372 247.966 101.58C247.758 101.86 247.482 102 247.138 102H241.618V101.148H246.742C247.046 101.148 247.198 100.996 247.198 100.692V99.3C247.198 98.676 247.034 98.184 246.706 97.824C246.346 97.424 245.822 97.224 245.134 97.224C244.718 97.224 244.078 97.312 243.214 97.488V96.684ZM252.768 96.408C253.056 96.36 253.364 96.336 253.692 96.336C254.58 96.336 255.296 96.604 255.84 97.14C256.328 97.636 256.572 98.264 256.572 99.024V100.86C256.572 100.964 256.564 101.06 256.548 101.148H256.884V102H256.704L256.368 101.58H256.332C256.268 101.66 256.196 101.732 256.116 101.796C255.924 101.932 255.716 102 255.492 102H251.556V101.148H255.108C255.404 101.148 255.552 100.996 255.552 100.692V99.168C255.552 98.6 255.38 98.128 255.036 97.752C254.668 97.368 254.1 97.172 253.332 97.164C253.108 97.164 252.92 97.18 252.768 97.212V96.408ZM259.962 96.48V100.86C259.962 101.156 259.866 101.412 259.674 101.628C259.458 101.876 259.19 102 258.87 102H256.782V101.148H258.486C258.622 101.148 258.734 101.1 258.822 101.004C258.902 100.924 258.942 100.82 258.942 100.692V96.48H259.962ZM257.802 103.248C257.962 103.248 258.098 103.304 258.21 103.416C258.33 103.536 258.39 103.676 258.39 103.836C258.39 104.004 258.33 104.144 258.21 104.256C258.098 104.376 257.962 104.436 257.802 104.436C257.634 104.436 257.49 104.376 257.37 104.256C257.258 104.144 257.202 104.004 257.202 103.836C257.202 103.676 257.258 103.536 257.37 103.416C257.49 103.304 257.634 103.248 257.802 103.248ZM259.254 103.248C259.422 103.248 259.562 103.304 259.674 103.416C259.786 103.536 259.842 103.676 259.842 103.836C259.842 104.004 259.786 104.144 259.674 104.256C259.562 104.376 259.422 104.436 259.254 104.436C259.094 104.436 258.954 104.376 258.834 104.256C258.722 104.144 258.666 104.004 258.666 103.836C258.666 103.676 258.722 103.536 258.834 103.416C258.954 103.304 259.094 103.248 259.254 103.248ZM264.271 93.84C264.431 93.84 264.567 93.9 264.679 94.02C264.799 94.132 264.859 94.268 264.859 94.428C264.859 94.596 264.799 94.74 264.679 94.86C264.567 94.972 264.431 95.028 264.271 95.028C264.111 95.028 263.971 94.972 263.851 94.86C263.739 94.74 263.683 94.596 263.683 94.428C263.683 94.268 263.739 94.132 263.851 94.02C263.971 93.9 264.111 93.84 264.271 93.84ZM264.775 96.48V101.148H265.387V102H264.775C264.751 102.832 264.499 103.496 264.019 103.992C263.627 104.392 263.091 104.656 262.411 104.784C262.155 104.832 261.883 104.856 261.595 104.856C261.403 104.856 261.219 104.852 261.043 104.844L260.647 104.352V103.968C260.879 104 261.131 104.016 261.403 104.016C262.971 104.016 263.755 103.296 263.755 101.856V96.48H264.775ZM268.482 96.48V100.86C268.482 101.156 268.386 101.412 268.194 101.628C267.978 101.876 267.71 102 267.39 102H265.302V101.148H267.006C267.142 101.148 267.254 101.1 267.342 101.004C267.422 100.924 267.462 100.82 267.462 100.692V96.48H268.482ZM266.322 103.248C266.482 103.248 266.618 103.304 266.73 103.416C266.85 103.536 266.91 103.676 266.91 103.836C266.91 104.004 266.85 104.144 266.73 104.256C266.618 104.376 266.482 104.436 266.322 104.436C266.154 104.436 266.01 104.376 265.89 104.256C265.778 104.144 265.722 104.004 265.722 103.836C265.722 103.676 265.778 103.536 265.89 103.416C266.01 103.304 266.154 103.248 266.322 103.248ZM267.774 103.248C267.942 103.248 268.082 103.304 268.194 103.416C268.306 103.536 268.362 103.676 268.362 103.836C268.362 104.004 268.306 104.144 268.194 104.256C268.082 104.376 267.942 104.436 267.774 104.436C267.614 104.436 267.474 104.376 267.354 104.256C267.242 104.144 267.186 104.004 267.186 103.836C267.186 103.676 267.242 103.536 267.354 103.416C267.474 103.304 267.614 103.248 267.774 103.248ZM278.678 93.408V100.86C278.678 101.132 278.594 101.372 278.426 101.58C278.202 101.86 277.922 102 277.586 102H272.342L271.922 101.484V101.148H275.138L273.074 94.884H274.094L276.17 101.148H277.202C277.346 101.148 277.462 101.096 277.55 100.992C277.614 100.904 277.646 100.804 277.646 100.692V93.408H278.678Z" fill="black" fill-opacity="0.4"/>
</svg>
