<svg width="36" height="36" viewBox="0 0 36 36" fill="none" xmlns="http://www.w3.org/2000/svg">
<g clip-path="url(#clip0_15_666)">
<rect width="36" height="36" rx="6" fill="#E2FFF3"/>
<mask id="mask0_15_666" style="mask-type:luminance" maskUnits="userSpaceOnUse" x="3" y="3" width="30" height="30">
<rect x="3.59961" y="3.59961" width="28.8" height="28.8" fill="white"/>
</mask>
<g mask="url(#mask0_15_666)">
<mask id="mask1_15_666" style="mask-type:luminance" maskUnits="userSpaceOnUse" x="9" y="9" width="18" height="18">
<rect x="9.35938" y="9.35938" width="17.28" height="17.28" fill="white"/>
</mask>
<g mask="url(#mask1_15_666)">
<path fill-rule="evenodd" clip-rule="evenodd" d="M20.7599 24.8396C22.9676 24.8396 24.6614 24.0421 24.1803 20.8326L23.6201 16.4829C23.3235 14.8815 22.3021 14.2686 21.4057 14.2686H14.0772C13.1678 14.2686 12.2056 14.9276 11.8629 16.4829L11.3027 20.8326C10.8941 23.6796 12.5417 24.8396 14.7495 24.8396H20.7599Z" stroke="#02A09B" stroke-width="1.5" stroke-linecap="round" stroke-linejoin="round"/>
<path d="M14.6504 14.1107C14.6504 12.3927 16.0431 11 17.761 11C18.5883 10.9965 19.3829 11.3227 19.9691 11.9065C20.5554 12.4902 20.8849 13.2834 20.8849 14.1107" stroke="#02A09B" stroke-width="1.5" stroke-linecap="round" stroke-linejoin="round"/>
<path d="M15.626 17.3525H15.6589" stroke="#02A09B" stroke-width="1.5" stroke-linecap="round" stroke-linejoin="round"/>
<path d="M19.8242 17.3525H19.8572" stroke="#02A09B" stroke-width="1.5" stroke-linecap="round" stroke-linejoin="round"/>
</g>
</g>
</g>
<defs>
<clipPath id="clip0_15_666">
<rect width="36" height="36" fill="white"/>
</clipPath>
</defs>
</svg>
