<svg width="36" height="36" viewBox="0 0 36 36" fill="none" xmlns="http://www.w3.org/2000/svg">
<g clip-path="url(#clip0_15_683)">
<rect width="36" height="36" rx="6" fill="#FFF8ED"/>
<mask id="mask0_15_683" style="mask-type:luminance" maskUnits="userSpaceOnUse" x="9" y="9" width="18" height="18">
<rect x="9.36035" y="9.36035" width="17.28" height="17.28" fill="white"/>
</mask>
<g mask="url(#mask0_15_683)">
<path fill-rule="evenodd" clip-rule="evenodd" d="M10.8015 14.5033C10.8016 12.8558 12.137 11.5205 13.7845 11.5205H22.2171C23.8647 11.5205 25.1991 12.8559 25.1993 14.5031M25.1993 14.5031L25.2008 16.4492C25.2009 16.5925 25.144 16.73 25.0428 16.8313C24.9415 16.9327 24.8041 16.9896 24.6608 16.9896C24.0659 16.9896 23.588 17.4675 23.588 18.0617C23.588 18.6554 24.0661 19.1338 24.6608 19.1338C24.959 19.1338 25.2008 19.3756 25.2008 19.6738V21.6178C25.2008 23.2652 23.8662 24.6008 22.2178 24.6008H13.783C12.1353 24.6008 10.8008 23.2651 10.8008 21.6178V19.6738C10.8008 19.3756 11.0425 19.1338 11.3408 19.1338C11.9346 19.1338 12.4129 18.6556 12.4129 18.0617C12.4129 17.495 11.9633 17.0523 11.3408 17.0523C11.1975 17.0523 11.0602 16.9953 10.9589 16.894C10.8576 16.7927 10.8007 16.6553 10.8008 16.5121L10.8015 14.5033C10.8015 14.5032 10.8015 14.5033 10.8015 14.5033M11.8815 14.5035L11.881 16.0368C12.7936 16.2592 13.4929 17.0375 13.4929 18.0617C13.4929 19.0655 12.8089 19.9067 11.8808 20.1457V21.6178C11.8808 22.669 12.7322 23.5208 13.783 23.5208H22.2178C23.2695 23.5208 24.1208 22.6689 24.1208 21.6178V20.1458C23.1921 19.9069 22.508 19.0657 22.508 18.0617C22.508 17.0571 23.192 16.2165 24.1204 15.9777L24.1193 14.5039C24.1193 13.4526 23.2679 12.6005 22.2171 12.6005H13.7845C12.7334 12.6005 11.8815 13.4524 11.8815 14.5035ZM10.8015 14.5033L25.1993 14.5031L10.8015 14.5033Z" fill="#FFB948"/>
<path fill-rule="evenodd" clip-rule="evenodd" d="M18.628 15.4575L19.129 16.4721L20.2508 16.6352C20.8212 16.7198 21.0536 17.4218 20.6375 17.8284L20.6367 17.8293L19.8259 18.6181L20.0176 19.734C20.1162 20.31 19.5117 20.7379 19.0031 20.4727L19.0015 20.4719L18 19.9452L16.9969 20.4727C16.4883 20.7379 15.8838 20.3103 15.9824 19.7343L16.1741 18.618L15.3639 17.8291L15.3632 17.8284C14.9472 17.4218 15.1796 16.7198 15.75 16.6352L15.7515 16.635L16.871 16.4721L17.3725 15.4564L17.3731 15.4552C17.6294 14.9395 18.3701 14.9336 18.6277 15.4568C18.6278 15.4571 18.6279 15.4573 18.628 15.4575ZM17.7138 17.2047C17.6351 17.364 17.4832 17.4744 17.3074 17.5L16.6693 17.5928L17.1311 18.0425C17.2586 18.1666 17.3167 18.3454 17.2866 18.5208L17.1772 19.1577L17.7487 18.8572C17.906 18.7744 18.094 18.7744 18.2513 18.8572L18.8228 19.1577L18.7134 18.5208C18.6833 18.3454 18.7415 18.1664 18.869 18.0423L19.331 17.5928L18.6927 17.5C18.5169 17.4744 18.3649 17.364 18.2862 17.2047L18 16.625L17.7138 17.2047Z" fill="#FFB948"/>
</g>
</g>
<defs>
<clipPath id="clip0_15_683">
<rect width="36" height="36" fill="white"/>
</clipPath>
</defs>
</svg>
