<svg width="47" height="47" viewBox="0 0 47 47" fill="none" xmlns="http://www.w3.org/2000/svg">
<rect x="0.5" y="0.5" width="46" height="46" rx="23" fill="#4C6FFF"/>
<g clip-path="url(#clip0_1973_609)">
<path fill-rule="evenodd" clip-rule="evenodd" d="M29.6875 15.625H17.3125C16.6912 15.625 16.1875 16.1287 16.1875 16.75V30.25C16.1875 30.8713 16.6912 31.375 17.3125 31.375H29.6875C30.3088 31.375 30.8125 30.8713 30.8125 30.25V16.75C30.8125 16.1287 30.3088 15.625 29.6875 15.625ZM17.3125 14.5C16.0699 14.5 15.0625 15.5074 15.0625 16.75V30.25C15.0625 31.4926 16.0699 32.5 17.3125 32.5H29.6875C30.9301 32.5 31.9375 31.4926 31.9375 30.25V16.75C31.9375 15.5074 30.9301 14.5 29.6875 14.5H17.3125Z" fill="white"/>
<path d="M21.8125 17.875C21.8125 17.2537 22.3162 16.75 22.9375 16.75H24.0625C24.6838 16.75 25.1875 17.2537 25.1875 17.875V21.25C25.1875 21.8713 24.6838 22.375 24.0625 22.375H22.9375C22.3162 22.375 21.8125 21.8713 21.8125 21.25V17.875Z" fill="white"/>
<path d="M17.3125 17.875C17.3125 17.2537 17.8162 16.75 18.4375 16.75H19.5625C20.1838 16.75 20.6875 17.2537 20.6875 17.875V25.75C20.6875 26.3713 20.1838 26.875 19.5625 26.875H18.4375C17.8162 26.875 17.3125 26.3713 17.3125 25.75V17.875Z" fill="white"/>
<path d="M26.3125 17.875C26.3125 17.2537 26.8162 16.75 27.4375 16.75H28.5625C29.1838 16.75 29.6875 17.2537 29.6875 17.875V29.125C29.6875 29.7463 29.1838 30.25 28.5625 30.25H27.4375C26.8162 30.25 26.3125 29.7463 26.3125 29.125V17.875Z" fill="white"/>
</g>
<defs>
<clipPath id="clip0_1973_609">
<rect width="18" height="18" fill="white" transform="translate(14.5 14.5)"/>
</clipPath>
</defs>
</svg>
