<svg width="46" height="47" viewBox="0 0 46 47" fill="none" xmlns="http://www.w3.org/2000/svg">
<rect y="0.5" width="46" height="46" rx="23" fill="#68DBF2"/>
<path fill-rule="evenodd" clip-rule="evenodd" d="M23.5793 15.6463C23.387 15.6321 23.1938 15.625 23 15.625V14.5C23.2215 14.5 23.4423 14.5082 23.6621 14.5244L23.5793 15.6463ZM25.8342 16.1527C25.4734 16.0135 25.1028 15.9011 24.7254 15.8163L24.9719 14.7187C25.4032 14.8155 25.8267 14.944 26.2391 15.1031L25.8342 16.1527ZM27.3751 16.9522C27.214 16.8445 27.0494 16.7431 26.8816 16.6481L27.4361 15.6692C27.6279 15.7778 27.816 15.8937 28.0001 16.0168C28.1843 16.1398 28.3633 16.2693 28.5371 16.4049L27.845 17.2918C27.6929 17.1731 27.5362 17.0598 27.3751 16.9522ZM29.4385 18.9655C29.2158 18.6493 28.9701 18.35 28.7034 18.0699L29.5182 17.2941C29.823 17.6142 30.1038 17.9564 30.3583 18.3177L29.4385 18.9655ZM30.2756 20.4864C30.2014 20.3073 30.1208 20.1316 30.0341 19.9593L31.039 19.4535C31.1381 19.6504 31.2302 19.8513 31.3149 20.0558C31.3997 20.2604 31.4766 20.4676 31.5458 20.6769L30.4775 21.0298C30.4171 20.8467 30.3497 20.6654 30.2756 20.4864ZM30.8726 23.3067C30.8631 22.9201 30.8252 22.5347 30.7591 22.1537L31.8675 21.9613C31.9431 22.3968 31.9864 22.8373 31.9973 23.2791L30.8726 23.3067ZM30.7237 25.0363C30.7615 24.8463 30.7922 24.6554 30.8158 24.464L31.9323 24.6017C31.9053 24.8204 31.8703 25.0386 31.8271 25.2558C31.7839 25.473 31.7328 25.688 31.674 25.9004L30.5897 25.6004C30.6412 25.4145 30.6859 25.2264 30.7237 25.0363ZM29.6532 27.7131C29.8601 27.3864 30.0427 27.0448 30.1994 26.6913L31.2279 27.1472C31.0488 27.5512 30.8401 27.9416 30.6037 28.315L29.6532 27.7131ZM28.5685 29.0685C28.7055 28.9314 28.8371 28.7898 28.963 28.6437L29.8149 29.3786C29.6709 29.5454 29.5206 29.7074 29.364 29.864L28.5685 29.0685Z" fill="white"/>
<path fill-rule="evenodd" clip-rule="evenodd" d="M23 15.625C21.705 15.625 20.4299 15.9444 19.2878 16.5549C18.1456 17.1654 17.1717 18.0481 16.4522 19.1249C15.7327 20.2017 15.2899 21.4393 15.1629 22.7281C15.036 24.0169 15.2289 25.3172 15.7245 26.5136C16.22 27.7101 17.0031 28.7659 18.0042 29.5875C19.0052 30.409 20.1935 30.971 21.4637 31.2237C22.7338 31.4763 24.0467 31.4118 25.286 31.0359C26.5253 30.66 27.6527 29.9842 28.5685 29.0685L29.364 29.864C28.3174 30.9105 27.0289 31.6828 25.6126 32.1125C24.1962 32.5421 22.6958 32.6158 21.2442 32.3271C19.7926 32.0383 18.4346 31.396 17.2905 30.4571C16.1464 29.5182 15.2515 28.3115 14.6851 26.9442C14.1187 25.5768 13.8983 24.0908 14.0433 22.6178C14.1884 21.1449 14.6945 19.7305 15.5168 18.4999C16.3391 17.2692 17.4521 16.2604 18.7574 15.5627C20.0627 14.865 21.5199 14.5 23 14.5V15.625Z" fill="white"/>
<path fill-rule="evenodd" clip-rule="evenodd" d="M22.4375 17.875C22.7482 17.875 23 18.1268 23 18.4375V24.2986L26.6541 26.3866C26.9238 26.5407 27.0175 26.8843 26.8634 27.1541C26.7093 27.4238 26.3657 27.5175 26.0959 27.3634L22.1584 25.1134C21.9832 25.0132 21.875 24.8269 21.875 24.625V18.4375C21.875 18.1268 22.1268 17.875 22.4375 17.875Z" fill="white"/>
</svg>
