<svg width="79" height="36" viewBox="0 0 79 36" fill="none" xmlns="http://www.w3.org/2000/svg">
<rect x="0.5" y="0.5" width="78" height="35" rx="5.5" stroke="#EDF2F7"/>
<path d="M20.8608 22V13.2727H26.5369V14.598H22.4418V16.9673H26.2429V18.2926H22.4418V20.6747H26.571V22H20.8608ZM29.343 15.4545L30.6641 17.8707L32.0064 15.4545H33.6385L31.6655 18.7273L33.6726 22H32.049L30.6641 19.6435L29.2919 22H27.6555L29.6499 18.7273L27.7067 15.4545H29.343ZM34.8317 24.4545V15.4545H36.3487V16.5369H36.4382C36.5178 16.3778 36.63 16.2088 36.7749 16.0298C36.9197 15.848 37.1158 15.6932 37.3629 15.5653C37.6101 15.4347 37.9254 15.3693 38.3089 15.3693C38.8146 15.3693 39.2706 15.4986 39.6768 15.7571C40.0859 16.0128 40.4098 16.392 40.6484 16.8949C40.8899 17.3949 41.0107 18.0085 41.0107 18.7358C41.0107 19.4545 40.8928 20.0653 40.657 20.5682C40.4212 21.071 40.1001 21.4545 39.6939 21.7188C39.2876 21.983 38.8274 22.1151 38.3132 22.1151C37.9382 22.1151 37.6271 22.0526 37.38 21.9276C37.1328 21.8026 36.9339 21.652 36.7834 21.4759C36.6357 21.2969 36.5206 21.1278 36.4382 20.9688H36.3743V24.4545H34.8317ZM36.3445 18.7273C36.3445 19.1506 36.4041 19.5213 36.5234 19.8395C36.6456 20.1577 36.8203 20.4062 37.0476 20.5852C37.2777 20.7614 37.5561 20.8494 37.8828 20.8494C38.2237 20.8494 38.5092 20.7585 38.7393 20.5767C38.9695 20.392 39.1428 20.1406 39.2592 19.8224C39.3786 19.5014 39.4382 19.1364 39.4382 18.7273C39.4382 18.321 39.38 17.9602 39.2635 17.6449C39.147 17.3295 38.9737 17.0824 38.7436 16.9034C38.5135 16.7244 38.2266 16.6349 37.8828 16.6349C37.5533 16.6349 37.2734 16.7216 37.0433 16.8949C36.8132 17.0682 36.6385 17.3111 36.5192 17.6236C36.4027 17.9361 36.3445 18.304 36.3445 18.7273ZM45.1868 22.1278C44.5476 22.1278 43.9936 21.9872 43.5249 21.706C43.0561 21.4247 42.6925 21.0312 42.4339 20.5256C42.1783 20.0199 42.0504 19.429 42.0504 18.7528C42.0504 18.0767 42.1783 17.4844 42.4339 16.9759C42.6925 16.4673 43.0561 16.0724 43.5249 15.7912C43.9936 15.5099 44.5476 15.3693 45.1868 15.3693C45.826 15.3693 46.38 15.5099 46.8487 15.7912C47.3175 16.0724 47.6797 16.4673 47.9354 16.9759C48.1939 17.4844 48.3232 18.0767 48.3232 18.7528C48.3232 19.429 48.1939 20.0199 47.9354 20.5256C47.6797 21.0312 47.3175 21.4247 46.8487 21.706C46.38 21.9872 45.826 22.1278 45.1868 22.1278ZM45.1953 20.892C45.5419 20.892 45.8317 20.7969 46.0646 20.6065C46.2976 20.4134 46.4709 20.1548 46.5845 19.831C46.701 19.5071 46.7592 19.1463 46.7592 18.7486C46.7592 18.348 46.701 17.9858 46.5845 17.6619C46.4709 17.3352 46.2976 17.0753 46.0646 16.8821C45.8317 16.6889 45.5419 16.5923 45.1953 16.5923C44.8402 16.5923 44.5447 16.6889 44.3089 16.8821C44.076 17.0753 43.9013 17.3352 43.7848 17.6619C43.6712 17.9858 43.6143 18.348 43.6143 18.7486C43.6143 19.1463 43.6712 19.5071 43.7848 19.831C43.9013 20.1548 44.076 20.4134 44.3089 20.6065C44.5447 20.7969 44.8402 20.892 45.1953 20.892ZM49.6325 22V15.4545H51.1282V16.5455H51.1964C51.3157 16.1676 51.5202 15.8764 51.81 15.6719C52.1026 15.4645 52.4364 15.3608 52.8114 15.3608C52.8967 15.3608 52.9918 15.3651 53.0969 15.3736C53.2049 15.3793 53.2944 15.3892 53.3654 15.4034V16.8224C53.3001 16.7997 53.1964 16.7798 53.0543 16.7628C52.9151 16.7429 52.7802 16.733 52.6495 16.733C52.3683 16.733 52.1154 16.794 51.891 16.9162C51.6694 17.0355 51.4947 17.2017 51.3668 17.4148C51.239 17.6278 51.1751 17.8736 51.1751 18.152V22H49.6325ZM58.0103 15.4545V16.6477H54.2475V15.4545H58.0103ZM55.1765 13.8864H56.7191V20.0312C56.7191 20.2386 56.7504 20.3977 56.8129 20.5085C56.8782 20.6165 56.9634 20.6903 57.0685 20.7301C57.1737 20.7699 57.2901 20.7898 57.418 20.7898C57.5146 20.7898 57.6026 20.7827 57.6822 20.7685C57.7646 20.7543 57.8271 20.7415 57.8697 20.7301L58.1296 21.9361C58.0472 21.9645 57.9293 21.9957 57.7759 22.0298C57.6254 22.0639 57.4407 22.0838 57.2219 22.0895C56.8356 22.1009 56.4876 22.0426 56.1779 21.9148C55.8683 21.7841 55.6225 21.5824 55.4407 21.3097C55.2617 21.0369 55.1737 20.696 55.1765 20.2869V13.8864Z" fill="#16192C"/>
</svg>
